<?xml version="1.0" standalone="no"?>
<!DOCTYPE svg PUBLIC "-//W3C//DTD SVG 1.1//EN" "http://www.w3.org/Graphics/SVG/1.1/DTD/svg11.dtd">
<svg xmlns="http://www.w3.org/2000/svg">
<defs >
<font id="DMSans" horiz-adv-x="553" ><font-face
    font-family="DM Sans 9pt"
    units-per-em="1000"
    panose-1="0 0 0 0 0 0 0 0 0 0"
    ascent="992"
    descent="-310"
    alphabetic="0" />
<glyph unicode=" " horiz-adv-x="235" />
<glyph unicode="!" horiz-adv-x="309" d="M97 228L82 700H227L212 228H97ZM155 -5Q118 -5 95 17T71 73Q71 106 94 128T155 151Q192 151 215 129T238 73Q238 40 215 18T155 -5Z" />
<glyph unicode="&quot;" horiz-adv-x="367" d="M223 537L211 755H327L315 537H223ZM53 537L40 755H156L144 537H53Z" />
<glyph unicode="#" horiz-adv-x="857" d="M447 0L599 726H725L574 0H447ZM138 0L289 726H416L265 0H138ZM32 171V293H763V171H32ZM85 437V558H817V437H85Z" />
<glyph unicode="$" horiz-adv-x="604" d="M268 -87V792H334V-87H268ZM310 -12Q234 -12 175 14T81 90T45 211H188Q189 180 204 155T245 116T309 101Q341 101 364 111T401 141T414 186Q414 216 400 236T360 270T301 295T230 320Q147 347 104 392T60 511Q60 574 90
619T175 688T298 712Q369 712 422 688T507 617T540 509H396Q395 532 383 552T348 585T296 598Q270 599 249 590T215 564T202 520Q202 495 214 478T249 449T301 426T366 404Q418 386 462 362T532 298T558 195Q558 140 529 93T446 17T310 -12Z" />
<glyph unicode="%" horiz-adv-x="902" d="M187 0L580 700H711L318 0H187ZM687 -12Q638 -12 599 9T536 71T513 167Q513 223 536 263T598 324T687 346Q736 346 775 325T837 263T860 167Q860 112 837 72T775 10T687 -12ZM686 81Q706 81 721 91T745 120T754 167Q754
196 746 215T722 245T686 255Q667 255 652 245T627 216T618 167Q618 139 627 120T651 91T686 81ZM216 353Q168 353 128 375T65 437T42 532Q42 589 65 628T128 690T217 712Q266 712 304 690T366 629T390 532Q390 477 367 437T304 375T216 353ZM216 446Q235 446 250
456T275 485T284 532Q284 562 275 581T251 610T216 620Q197 620 182 610T157 581T148 532Q148 504 157 485T181 456T216 446Z" />
<glyph unicode="&amp;" horiz-adv-x="781" d="M596 0L216 378Q170 424 151 461T132 541Q132 589 156 628T226 689T338 712Q403 712 447 688T515 625T538 537H409Q409 573 388 591T336 609Q302 609 282 591T261 542Q261 518 276 492T322 434L757 0H596ZM292 -11Q215
-11 159 15T71 90T40 203Q40 253 61 296T124 373T228 427L279 443L338 359L292 344Q231 324 202 290T172 211Q172 180 187 155T231 114T299 99Q353 99 396 123T479 200Q497 224 515 254T551 321L572 364H709L675 295Q650 243 624 200T570 124Q513 53 446 21T292
-11Z" />
<glyph unicode="&apos;" horiz-adv-x="197" d="M53 537L40 755H157L144 537H53Z" />
<glyph unicode="(" horiz-adv-x="405" d="M239 -145Q183 -88 139 -15T71 147T46 333Q46 432 70 519T139 681T239 811H373V798Q313 735 270 660T202 503T178 333Q178 246 202 164T270 7T373 -132V-145H239Z" />
<glyph unicode=")" horiz-adv-x="405" d="M166 -145H31V-132Q91 -68 135 6T202 163T226 333Q226 420 203 502T135 660T31 798V811H166Q222 755 265 681T334 520T359 333Q359 235 334 147T266 -14T166 -145Z" />
<glyph unicode="*" horiz-adv-x="513" d="M211 360L230 500L121 411L70 500L199 550L71 599L118 683L231 596L210 737H308L286 596L399 683L445 600L316 549L446 499L397 412L286 500L307 360H211Z" />
<glyph unicode="+" horiz-adv-x="579" d="M232 61V517H347V61H232ZM45 233V346H533V233H45Z" />
<glyph unicode="," horiz-adv-x="246" d="M22 -123L79 131H209L110 -123H22Z" />
<glyph unicode="-" horiz-adv-x="576" d="M333 238V351H755V238H333Z" />
<glyph unicode="." horiz-adv-x="252" d="M127 -5Q89 -5 66 17T43 73Q43 106 66 128T127 151Q163 151 186 129T209 73Q209 40 186 18T127 -5Z" />
<glyph unicode="/" horiz-adv-x="427" d="M23 -114L273 779H404L154 -114H23Z" />
<glyph unicode="0" horiz-adv-x="704" d="M352 -12Q257 -12 188 34T83 161T46 350Q46 457 82 538T187 666T352 712Q448 712 516 666T621 539T658 350Q658 243 622 162T517 34T352 -12ZM352 109Q402 109 440 138T499 222T521 350Q521 425 500 478T440 561T352 590Q302
590 264 561T205 479T183 350Q183 276 204 222T264 139T352 109Z" />
<glyph unicode="1" horiz-adv-x="364" d="M155 0V545L31 512V620L213 700H295V0H155Z" />
<glyph unicode="2" horiz-adv-x="577" d="M50 0V99Q114 150 174 201T283 302T359 401T387 494Q387 522 377 545T346 583T289 598Q254 598 230 582T194 540T182 480H51Q54 557 86 609T172 686T293 712Q367 712 418 685T495 610T522 502Q522 456 506 412T460 327T393
247T316 175T238 110H539V0H50Z" />
<glyph unicode="3" horiz-adv-x="603" d="M300 -12Q232 -12 175 13T84 89T48 218H180Q181 185 195 159T236 117T300 101Q335 101 360 115T398 152T411 205Q411 240 394 263T346 299T276 311H224V422H276Q325 422 358 445T392 514Q392 552 368 575T299 598Q251
598 224 570T194 501H62Q65 567 95 614T178 687T299 712Q372 712 422 687T499 618T525 525Q525 484 510 452T468 399T411 369Q450 361 479 339T525 281T542 200Q542 143 515 95T433 17T300 -12Z" />
<glyph unicode="4" horiz-adv-x="650" d="M389 0V127H45V234L371 700H524V244H615V127H524V0H389ZM189 244H398V551V551L189 244Z" />
<glyph unicode="5" horiz-adv-x="622" d="M319 -12Q243 -12 188 15T101 89T65 196H197Q204 157 237 130T320 103Q356 103 383 121T425 169T440 239Q440 279 425 308T383 353T322 369Q279 369 249 349T205 299H74L132 700H525V582H232L203 426Q225 449 262 464T345
479Q402 479 444 459T514 406T556 330T570 240Q570 185 552 139T500 59T421 7T319 -12Z" />
<glyph unicode="6" horiz-adv-x="634" d="M332 -12Q253 -12 199 17T112 95T65 204T50 327Q50 445 83 531T178 664T328 712Q402 712 453 684T532 609T565 510H439Q431 554 402 577T327 601Q284 601 252 575T203 497T182 366Q182 365 182 363T182 360Q198 387 224
408T284 441T356 453Q414 453 464 425T545 346T576 225Q576 162 546 108T460 21T332 -12ZM324 104Q360 104 387 119T431 160T447 221Q447 257 431 283T387 324T323 339Q288 339 260 324T216 283T199 222Q199 187 215 161T260 119T324 104Z" />
<glyph unicode="7" horiz-adv-x="537" d="M111 0L368 585H29V700H506V605L251 0H111Z" />
<glyph unicode="8" horiz-adv-x="633" d="M316 -12Q244 -12 186 14T94 87T60 196Q60 239 74 274T115 336T177 377Q132 398 105 437T77 525Q77 574 104 617T184 686T316 712Q395 712 448 686T528 617T555 525Q555 477 528 438T455 377Q491 362 517 336T558 274T573
196Q573 134 539 87T446 14T316 -12ZM316 101Q378 101 409 131T440 207Q440 258 408 287T316 317Q258 317 225 288T191 207Q191 161 223 131T316 101ZM316 416Q367 416 394 442T422 509Q422 553 395 577T316 602Q266 602 238 578T210 508Q210 468 238 442T316 416Z"
/>
<glyph unicode="9" horiz-adv-x="635" d="M306 -12Q233 -12 182 16T104 91T70 190H196Q205 146 233 123T308 99Q351 99 382 124T432 201T452 329Q452 332 452 335T452 340Q438 314 411 293T351 259T279 247Q222 247 171 275T89 354T58 475Q58 539 89 593T175 679T302
712Q382 712 436 683T522 605T569 496T584 373Q584 256 552 170T457 36T306 -12ZM311 361Q347 361 374 376T418 417T435 478Q435 513 419 540T374 581T310 596Q275 596 247 581T204 540T188 479Q188 444 203 418T247 376T311 361Z" />
<glyph unicode=":" horiz-adv-x="254" d="M127 -5Q89 -5 66 17T43 73Q43 106 66 128T127 151Q163 151 186 129T209 73Q209 40 186 18T127 -5ZM127 361Q89 361 66 383T43 439Q43 472 66 494T127 517Q163 517 186 495T209 439Q209 406 186 384T127 361Z" />
<glyph unicode=";" horiz-adv-x="278" d="M151 361Q113 361 90 383T67 439Q67 472 90 494T151 517Q187 517 210 495T233 439Q233 406 210 384T151 361ZM30 -123L87 131H217L118 -123H30Z" />
<glyph unicode="&lt;" horiz-adv-x="579" d="M485 54H315L95 278V278L315 504H485L264 278L485 54Z" />
<glyph unicode="=" horiz-adv-x="579" d="M75 343V461H504V343H75ZM75 119V237H504V119H75Z" />
<glyph unicode="&gt;" horiz-adv-x="579" d="M94 54L315 278L94 504H265L485 278V278L265 54H94Z" />
<glyph unicode="?" horiz-adv-x="538" d="M143 226L138 387H186Q224 387 257 392T314 409T353 443T367 502Q367 533 355 555T319 589T265 601Q232 601 209 589T173 555T160 503H33Q32 563 60 610T140 684T266 712Q334 712 386 688T468 616T498 502Q498 433 469
388T387 321T265 298L262 226H143ZM203 -5Q166 -5 143 17T119 73Q119 106 142 128T203 151Q240 151 263 129T286 73Q286 40 263 18T203 -5Z" />
<glyph unicode="@" horiz-adv-x="1046" d="M444 -214Q334 -214 251 -171T122 -48T76 139Q76 250 113 344T220 508T384 617T592 656Q708 656 792 612T924 490T971 309Q971 248 956 192T911 92T838 21T737 -5Q668 -5 636 35T612 141L615 173L635 119Q611 61 560
27T445 -7Q371 -7 329 38T287 162Q287 217 303 267T351 356T425 418T519 441Q577 441 609 413T649 331L628 316L649 433H759L713 167Q706 130 715 107T756 83Q784 83 804 103T839 156T859 228T866 304Q866 385 832 443T733 533T578 565Q490 565 418 533T292 444T209
312T179 150Q179 64 213 3T310 -89T460 -121Q506 -121 550 -112T632 -86L654 -174Q606 -194 554 -204T444 -214ZM487 92Q521 92 549 111T596 164T616 239Q618 269 609 292T580 329T531 343Q502 343 479 330T440 295T414 244T405 184Q405 143 425 118T487 92Z" />
<glyph unicode="A" horiz-adv-x="709" d="M22 0L278 700H431L686 0H543L354 546V546L164 0H22ZM135 159L171 264H527L562 159H135Z" />
<glyph unicode="B" horiz-adv-x="638" d="M69 0V700H356Q429 700 479 677T554 614T580 520Q580 467 557 431T497 376T414 353L430 364Q478 362 515 339T574 276T596 191Q596 135 569 92T491 25T366 0H69ZM204 110H344Q399 110 429 135T459 207Q459 254 428 280T342
307H204V110ZM204 408H334Q387 408 414 432T442 500Q442 543 415 567T333 592H204V408Z" />
<glyph unicode="C" horiz-adv-x="738" d="M383 -12Q278 -12 203 33T87 160T46 349Q46 456 86 538T202 666T383 712Q510 712 591 649T692 471H545Q532 527 491 558T382 590Q320 590 276 561T207 478T183 349Q183 275 207 221T275 138T382 109Q449 109 490 138T544
221H692Q672 112 591 50T383 -12Z" />
<glyph unicode="D" horiz-adv-x="707" d="M69 0V700H303Q425 700 504 657T622 535T661 350Q661 244 623 166T505 44T303 0H69ZM204 116H296Q382 116 431 144T502 224T523 350Q523 424 502 476T432 557T296 585H204V116Z" />
<glyph unicode="E" horiz-adv-x="583" d="M69 0V700H529V591H204V408H499V303H204V109H529V0H69Z" />
<glyph unicode="F" horiz-adv-x="556" d="M69 0V700H525V591H204V404H461V298H204V0H69Z" />
<glyph unicode="G" horiz-adv-x="778" d="M376 -12Q276 -12 202 32T87 157T46 345Q46 453 88 535T209 665T398 712Q521 712 602 653T708 489H557Q542 535 502 561T397 588Q329 588 281 558T208 474T183 345Q183 269 208 216T279 136T389 108Q481 108 528 157T585
286H413V387H721V0H596L586 89V89Q564 56 535 34T466 0T376 -12Z" />
<glyph unicode="H" horiz-adv-x="714" d="M510 0V700H645V0H510ZM69 0V700H204V0H69ZM185 303V412H533V303H185Z" />
<glyph unicode="I" horiz-adv-x="272" d="M69 0V700H204V0H69Z" />
<glyph unicode="J" horiz-adv-x="541" d="M256 -12Q188 -12 137 14T57 90T29 213H164Q164 181 173 158T202 122T253 109Q283 109 301 120T328 153T337 205V700H472V205Q472 100 414 44T256 -12Z" />
<glyph unicode="K" horiz-adv-x="653" d="M69 0V700H204V423L457 700H623L366 423L631 0H466L269 318L204 248V0H69Z" />
<glyph unicode="L" horiz-adv-x="558" d="M69 0V700H204V105H511V0H69Z" />
<glyph unicode="M" horiz-adv-x="886" d="M69 0V700H230L444 263V263L656 700H817V0H682V470V470L497 98H390L204 470V470V0H69Z" />
<glyph unicode="N" horiz-adv-x="729" d="M69 0V700H204L526 217V217V700H661V0H526L204 482V482V0H69Z" />
<glyph unicode="O" horiz-adv-x="784" d="M392 -12Q290 -12 212 34T90 161T46 350Q46 457 90 538T212 666T392 712Q495 712 573 666T694 539T738 350Q738 243 695 162T573 34T392 -12ZM392 109Q456 109 502 138T575 222T601 350Q601 425 575 478T503 561T392 590Q329
590 282 561T209 479T183 350Q183 276 209 222T282 139T392 109Z" />
<glyph unicode="P" horiz-adv-x="614" d="M69 0V700H331Q416 700 472 671T555 593T582 481Q582 423 556 374T474 295T331 264H204V0H69ZM204 373H323Q388 373 416 402T445 481Q445 533 417 561T323 590H204V373Z" />
<glyph unicode="Q" horiz-adv-x="784" d="M557 -110L302 291H457L718 -110H557ZM392 -12Q290 -12 212 34T90 161T46 350Q46 457 90 538T212 666T392 712Q495 712 573 666T694 539T738 350Q738 243 695 162T573 34T392 -12ZM392 109Q456 109 502 138T575 222T601
350Q601 425 575 478T503 561T392 590Q329 590 282 561T209 479T183 350Q183 276 209 222T282 139T392 109Z" />
<glyph unicode="R" horiz-adv-x="631" d="M69 0V700H330Q415 700 470 671T552 594T579 486Q579 430 553 382T472 304T329 274H204V0H69ZM432 0L288 308H434L586 0H432ZM204 372H322Q383 372 412 402T441 481Q441 530 413 558T322 587H204V372Z" />
<glyph unicode="S" horiz-adv-x="604" d="M310 -12Q234 -12 175 14T81 90T45 211H188Q189 180 204 155T245 116T309 101Q341 101 364 111T401 141T414 186Q414 216 400 236T360 270T301 295T230 320Q147 347 104 392T60 511Q60 574 90 619T175 688T298 712Q369
712 422 688T507 617T540 509H396Q395 532 383 552T348 585T296 598Q270 599 249 590T215 564T202 520Q202 495 214 478T249 449T301 426T366 404Q418 386 462 362T532 298T558 195Q558 140 529 93T446 17T310 -12Z" />
<glyph unicode="T" horiz-adv-x="597" d="M232 0V591H27V700H570V591H366V0H232Z" />
<glyph unicode="U" horiz-adv-x="685" d="M340 -12Q263 -12 200 19T100 112T63 270V700H198V269Q198 217 215 182T264 129T342 112Q388 112 420 129T470 181T487 269V700H622V270Q622 174 584 112T482 19T340 -12Z" />
<glyph unicode="V" horiz-adv-x="706" d="M270 0L15 700H159L353 138V138L548 700H691L436 0H270Z" />
<glyph unicode="W" horiz-adv-x="1018" d="M210 0L26 700H170L292 153V153L436 700H585L725 153V153L848 700H993L804 0H643L509 510V510L370 0H210Z" />
<glyph unicode="X" horiz-adv-x="670" d="M33 0L254 355L30 700H186L340 461V461L481 700H633L414 349L639 0H483L328 243V243L186 0H33Z" />
<glyph unicode="Y" horiz-adv-x="635" d="M250 0V246L14 700H167L332 354H305L469 700H621L385 246V0H250Z" />
<glyph unicode="Z" horiz-adv-x="577" d="M49 0V104L372 588H51V700H527V596L203 112H529V0H49Z" />
<glyph unicode="[" horiz-adv-x="377" d="M69 -173V811H322V702H195V-63H322V-173H69Z" />
<glyph unicode="\" horiz-adv-x="427" d="M404 -114H273L23 779H154L404 -114Z" />
<glyph unicode="]" horiz-adv-x="377" d="M308 -173H55V-63H182V702H55V811H308V-173Z" />
<glyph unicode="^" horiz-adv-x="677" d="M35 200L274 700H403L642 200H506L339 548V548L171 200H35Z" />
<glyph unicode="_" horiz-adv-x="725" d="M77 -168V-39H648V-168H77Z" />
<glyph unicode="`" horiz-adv-x="235" d="M222 547L0 658L15 761V761L235 636L222 547Z" />
<glyph unicode="a" horiz-adv-x="586" d="M236 -12Q173 -12 132 8T72 63T52 140Q52 186 75 221T146 276T266 296H391Q391 333 381 357T350 394T294 406Q256 406 230 390T197 339H66Q71 393 101 432T182 494T295 516Q366 516 418 492T498 423T526 312V0H412L397
77V77Q386 57 371 41T336 13T291 -5T236 -12ZM268 92Q294 92 314 101T350 127T373 165T385 212V213H282Q251 213 232 206T203 184T194 152Q194 132 203 119T229 99T268 92Z" />
<glyph unicode="b" horiz-adv-x="655" d="M364 -12Q325 -12 295 -2T241 25T201 65V65L186 0H66V720H201V434Q225 469 264 492T363 516Q433 516 487 482T573 388T605 251Q605 176 574 116T488 22T364 -12ZM332 106Q372 106 402 124T450 175T467 251Q467 294 450
327T403 379T332 398Q293 398 263 380T215 328T197 252Q197 209 214 176T262 124T332 106Z" />
<glyph unicode="c" horiz-adv-x="607" d="M310 -12Q234 -12 175 22T83 115T50 250Q50 328 83 387T175 481T310 516Q407 516 473 465T557 325H414Q405 360 377 380T309 400Q274 400 247 383T204 332T188 252Q188 217 197 190T222 143T260 113T309 103Q335 103 356
112T393 137T414 178H557Q539 91 473 40T310 -12Z" />
<glyph unicode="d" horiz-adv-x="655" d="M290 -12Q221 -12 167 22T81 116T50 251Q50 328 81 387T168 481T293 516Q347 516 388 496T454 439V720H589V0H469L454 69V69Q439 48 417 29T363 -1T290 -12ZM322 106Q362 106 392 124T440 176T457 252Q457 295 440 328T393
379T322 398Q284 398 253 380T205 328T187 253Q187 209 204 176T252 125T322 106Z" />
<glyph unicode="e" horiz-adv-x="602" d="M308 -12Q232 -12 174 20T83 111T50 247Q50 326 82 386T172 481T308 516Q383 516 439 483T526 394T557 267Q557 257 557 245T555 219H146V301H421Q418 350 387 378T308 406Q274 406 245 391T200 343T183 262V233Q183 192
198 162T242 115T307 98Q344 98 368 114T405 155H543Q529 108 496 70T415 10T308 -12Z" />
<glyph unicode="f" horiz-adv-x="371" d="M89 0V549Q89 612 110 649T170 703T263 720H325V605H283Q251 605 238 593T224 549V0H89ZM20 391V504H333V391H20Z" />
<glyph unicode="g" horiz-adv-x="596" d="M283 -232Q211 -232 157 -215T74 -162T44 -74Q44 -39 62 -8T114 48T201 92L252 26Q206 11 186 -11T165 -60Q165 -83 180 -99T222 -122T282 -130Q314 -130 337 -122T374 -99T388 -62Q388 -35 369 -18T293 3Q242 7 203 14T133
32T83 56T49 82V105L156 220L253 189L127 65L165 131Q176 125 186 120T213 110T255 101T321 94Q387 88 429 69T492 19T512 -59Q512 -104 488 -143T412 -207T283 -232ZM283 149Q220 149 175 173T105 239T80 332Q80 383 104 424T174 491T283 516Q347 516 392 491T462
425T486 332Q486 281 462 240T393 174T283 149ZM283 252Q322 252 346 272T370 331Q370 370 346 390T283 411Q245 411 221 391T196 331Q196 292 220 272T283 252ZM367 408L345 504H552V424L367 408Z" />
<glyph unicode="h" horiz-adv-x="618" d="M66 0V720H201V429V429Q226 468 267 492T364 516Q427 516 470 490T535 413T557 289V0H423V277Q423 337 398 369T319 402Q286 402 259 386T217 340T201 267V0H66Z" />
<glyph unicode="i" horiz-adv-x="274" d="M69 0V504H204V0H69ZM137 573Q101 573 78 594T54 649Q54 682 77 703T137 725Q174 725 197 704T221 649Q221 616 198 595T137 573Z" />
<glyph unicode="j" horiz-adv-x="274" d="M-29 -220V-105H12Q44 -105 57 -92T71 -50V504H206V-49Q206 -111 185 -148T124 -203T32 -220H-29ZM139 573Q102 573 79 594T56 649Q56 682 79 703T139 725Q176 725 199 704T222 649Q222 616 199 595T139 573Z" />
<glyph unicode="k" horiz-adv-x="578" d="M396 0L181 276L374 504H533L284 219V326L564 0H396ZM66 0V720H201V0H66Z" />
<glyph unicode="l" horiz-adv-x="267" d="M66 0V720H201V0H66Z" />
<glyph unicode="m" horiz-adv-x="941" d="M66 0V504H185L196 437V437Q220 473 259 494T350 516Q388 516 418 506T471 477T510 429V429Q538 470 583 493T681 516Q747 516 791 490T857 413T880 290V0H746V278Q746 338 723 370T650 402Q618 402 593 386T555 340T541
268V0H406V278Q406 338 382 370T308 402Q277 402 253 386T215 340T201 268V0H66Z" />
<glyph unicode="n" horiz-adv-x="617" d="M66 0V504H185L195 422V422Q218 464 260 490T362 516Q425 516 468 490T533 414T556 291V0H422V278Q422 338 397 370T318 402Q284 402 258 386T216 341T201 269V0H66Z" />
<glyph unicode="o" horiz-adv-x="610" d="M304 -12Q232 -12 175 21T84 114T50 251Q50 330 83 389T175 482T305 516Q378 516 435 483T526 390T560 252Q560 174 527 115T435 22T304 -12ZM304 105Q338 105 364 121T406 170T422 252Q422 301 407 333T365 382T305 399Q273
399 246 383T204 334T188 252Q188 203 203 170T245 121T304 105Z" />
<glyph unicode="p" horiz-adv-x="655" d="M66 -220V504H186L201 434V434Q217 456 239 474T291 504T363 516Q434 516 488 481T573 387T605 251Q605 175 573 116T487 22T364 -12Q308 -12 268 8T201 65V-220H66ZM332 106Q372 106 402 124T450 175T467 251Q467 294
450 327T403 379T332 398Q293 398 263 380T215 328T197 252Q197 209 214 176T262 124T332 106Z" />
<glyph unicode="q" horiz-adv-x="655" d="M454 -220V70Q430 34 391 11T293 -12Q223 -12 168 22T82 117T50 252Q50 328 81 387T168 481T293 516Q331 516 361 507T414 480T454 438V438L469 504H589V-220H454ZM322 106Q362 106 392 124T440 176T457 252Q457 295 440
328T393 379T322 398Q284 398 253 380T205 328T187 253Q187 209 204 176T252 125T322 106Z" />
<glyph unicode="r" horiz-adv-x="409" d="M66 0V504H186L199 411V411Q217 444 244 467T307 503T386 516V373H340Q310 373 285 366T240 344T211 301T201 233V0H66Z" />
<glyph unicode="s" horiz-adv-x="532" d="M272 -12Q203 -12 152 10T72 71T39 159H173Q178 140 190 125T222 100T270 91Q297 91 314 98T339 119T348 146Q348 167 336 178T301 197T245 211Q209 218 175 228T113 255T70 296T54 358Q54 403 78 438T148 495T259 516Q350
516 403 475T466 362H339Q333 385 313 398T258 412Q222 412 203 399T184 365Q184 351 196 340T232 322T288 307Q346 295 390 280T459 236T484 153Q484 105 458 68T385 9T272 -12Z" />
<glyph unicode="t" horiz-adv-x="433" d="M293 0Q240 0 201 16T139 71T117 177V391H31V504H117L132 641H252V504H385V391H252V175Q252 141 267 128T318 115H384V0H293Z" />
<glyph unicode="u" horiz-adv-x="616" d="M254 -12Q193 -12 150 13T83 88T60 211V504H195V225Q195 164 220 133T299 102Q333 102 359 117T400 162T416 235V504H550V0H432L421 82V82Q399 39 356 14T254 -12Z" />
<glyph unicode="v" horiz-adv-x="565" d="M201 0L16 504H158L283 127V127L408 504H549L365 0H201Z" />
<glyph unicode="w" horiz-adv-x="820" d="M165 0L17 504H150L248 95L223 96L335 504H485L597 96L571 95L670 504H803L655 0H515L396 420H424L305 0H165Z" />
<glyph unicode="x" horiz-adv-x="571" d="M19 0L200 252L19 504H165L286 331V331L407 504H552L371 252L552 0H407L286 174V174L165 0H19Z" />
<glyph unicode="y" horiz-adv-x="604" d="M130 -220L252 56H222L20 504H167L311 179V179L441 504H584L273 -220H130Z" />
<glyph unicode="z" horiz-adv-x="490" d="M33 0V108L287 392H36V504H442V395L186 112H447V0H33Z" />
<glyph unicode="{" horiz-adv-x="470" d="M342 -177Q264 -177 216 -134T167 -8Q167 25 172 53T182 109T188 172Q188 196 179 215T147 247T87 264V372Q125 376 147 388T178 419T188 463Q188 497 183 525T172 582T167 643Q167 726 215 768T342 811H407V699H367Q332
699 315 683T297 631Q297 606 302 580T311 525T316 458Q316 405 290 368T207 319V317Q264 305 290 268T316 177Q316 140 312 111T302 56T297 4Q297 -31 314 -48T367 -65H407V-177H342Z" />
<glyph unicode="|" horiz-adv-x="272" d="M69 -100V720H204V-100H69Z" />
<glyph unicode="}" horiz-adv-x="470" d="M129 -177H63V-65H103Q139 -65 156 -48T173 4Q173 30 169 55T160 110T155 177Q155 230 181 267T263 317V319Q207 331 181 368T155 458Q155 495 159 524T168 580T173 631Q173 667 156 683T103 699H63V811H129Q207 811 255
769T303 643Q303 610 298 582T288 526T282 463Q282 439 291 420T323 388T384 372V264Q346 260 324 248T292 216T282 172Q282 138 287 110T298 53T303 -8Q303 -91 255 -134T129 -177Z" />
<glyph unicode="~" horiz-adv-x="579" d="M377 224Q345 224 321 234T275 258T235 282T193 292Q167 292 151 275T130 225H29Q39 290 62 331T121 392T200 412Q232 412 257 402T303 378T343 355T385 344Q411 344 427 361T448 411H549Q541 346 517 305T458 244T377 224Z" />
<glyph unicode="&#xa0;" horiz-adv-x="235" />
<glyph unicode="&#xa1;" horiz-adv-x="309" d="M97 283H212L227 -189H82L97 283ZM155 516Q192 516 215 493T238 438Q238 405 215 382T155 359Q118 359 95 382T71 438Q71 470 94 493T155 516Z" />
<glyph unicode="&#xa2;" horiz-adv-x="607" d="M248 -104V68H372V-104H248ZM248 436V608H372V436H248ZM310 -12Q234 -12 175 22T83 115T50 250Q50 328 83 387T175 481T310 516Q407 516 473 465T557 325H414Q405 360 377 380T309 400Q274 400 247 383T204 332T188
252Q188 217 197 190T222 143T260 113T309 103Q335 103 356 112T393 137T414 178H557Q539 91 473 40T310 -12Z" />
<glyph unicode="&#xa3;" horiz-adv-x="627" d="M76 0V78Q102 104 120 131T147 190T157 264Q157 292 149 319T130 374T112 434T104 499Q104 565 133 612T214 686T334 712Q410 712 460 683T537 604T567 494H442Q441 540 414 570T336 601Q308 601 284 589T246 554T232
494Q232 469 240 442T258 386T276 327T284 265Q284 224 269 184T215 108H570V0H76ZM41 297V388H443V297H41Z" />
<glyph unicode="&#xa4;" horiz-adv-x="560" d="M280 118Q224 118 181 140T112 202T87 298Q87 353 112 393T182 454T281 476Q337 476 381 455T450 393T475 298Q475 243 450 203T380 140T280 118ZM118 78L63 135L155 227L221 181L118 78ZM442 78L351 169L410 223L498
135L442 78ZM281 204Q301 204 320 213T351 243T363 297Q363 331 351 351T321 381T280 391Q259 391 241 382T210 352T198 297Q198 264 209 244T240 214T281 204ZM152 373L63 462L118 519L214 423L152 373ZM400 365L346 422L442 519L498 462L400 365Z" />
<glyph unicode="&#xa5;" horiz-adv-x="650" d="M58 151V243H593V151H58ZM283 319H58V411H279L283 319ZM396 319L400 411H593V319H396ZM258 0V246L22 700H175L340 354H313L477 700H629L393 246V0H258Z" />
<glyph unicode="&#xa6;" horiz-adv-x="272" d="M69 395V720H204V395H69ZM69 -100V225H204V-100H69Z" />
<glyph unicode="&#xa7;" horiz-adv-x="617" d="M304 -232Q234 -232 180 -208T95 -137T62 -29H207Q208 -52 220 -72T254 -105T306 -118Q347 -119 373 -99T400 -40Q400 -15 388 1T353 28T302 48T237 70Q185 87 141 113T71 178T45 278Q45 317 59 352T100 416Q87 435
80 458T73 511Q73 574 103 619T188 688T310 712Q382 712 435 688T520 617T553 509H409Q408 532 396 552T362 585T309 598Q269 599 242 579T215 520Q215 495 227 479T262 452T314 431T379 410Q431 392 475 367T545 302T571 202Q571 163 557 128T515 64Q529 45 535
22T542 -31Q542 -92 512 -137T428 -207T304 -232ZM407 139Q417 149 422 163T427 193Q427 219 416 237T382 268T330 294T264 319Q246 325 233 330T208 341Q198 331 193 318T188 287Q188 267 195 252T217 225T251 202T296 182T351 161Q366 156 380 151T407 139Z"
/>
<glyph unicode="&#xa8;" horiz-adv-x="339" d="M261 563Q234 563 216 581T198 627Q198 654 216 672T261 691Q288 691 306 673T325 627Q325 600 307 582T261 563ZM77 563Q51 563 33 581T14 627Q14 654 32 672T77 691Q105 691 123 673T142 627Q142 600 124 582T77 563Z" />
<glyph unicode="&#xa9;" horiz-adv-x="785" d="M393 -6Q289 -6 211 40T88 167T43 352Q43 457 87 537T210 663T393 709Q497 709 575 664T698 538T742 352Q742 248 698 167T576 40T393 -6ZM393 124Q332 124 282 151T203 230T174 352Q174 423 202 474T281 552T393
580Q471 580 527 538T601 421H483Q473 452 449 469T390 487Q360 487 337 472T299 427T285 352Q285 307 299 277T336 232T390 217Q427 217 449 234T483 283H601Q584 211 528 168T393 124ZM393 42Q485 42 552 81T655 190T691 352Q691 446 655 515T552 622T393 661Q301
661 234 623T131 515T95 352Q95 260 131 190T234 81T393 42Z" />
<glyph unicode="&#xaa;" horiz-adv-x="506" d="M220 348Q172 348 134 370T74 434T52 530Q52 585 74 625T133 688T217 710Q264 710 295 694T343 651L351 705H446V353H351L343 406V406Q327 381 296 365T220 348ZM250 429Q276 429 296 441T330 475T343 529Q343 577
316 602T250 628Q213 628 186 603T158 529Q158 481 185 455T250 429Z" />
<glyph unicode="&#xab;" horiz-adv-x="514" d="M337 120L247 295L337 470H464L371 295L464 120H337ZM131 120L42 295L131 470H258L166 295L258 120H131Z" />
<glyph unicode="&#xac;" horiz-adv-x="579" d="M453 198V334H-8V438H588V198H453Z" />
<glyph unicode="&#xae;" horiz-adv-x="510" d="M255 291Q194 291 146 318T71 393T44 501Q44 563 71 610T146 685T255 712Q317 712 364 685T438 611T465 501Q465 440 438 393T364 319T255 291ZM288 397L232 493H297L359 397H288ZM255 339Q304 339 339 359T394 417T414
501Q414 550 395 586T340 643T255 664Q207 664 171 644T116 587T96 501Q96 454 115 417T171 360T255 339ZM169 397V610H273Q308 610 328 592T349 543Q349 512 329 494T273 475H231V397H169ZM230 520H265Q274 520 280 524T286 539Q286 550 280 554T265 558H230V520Z"
/>
<glyph unicode="&#xaf;" horiz-adv-x="401" d="M11 577V672H390V577H11Z" />
<glyph unicode="&#xb0;" horiz-adv-x="363" d="M181 423Q143 423 110 440T57 490T37 566Q37 611 57 644T111 694T182 712Q221 712 253 695T305 644T325 566Q325 523 305 491T253 441T181 423ZM181 508Q201 508 219 523T237 568Q237 598 220 612T182 627Q162 627
144 612T126 568Q126 538 143 523T181 508Z" />
<glyph unicode="&#xb1;" horiz-adv-x="579" d="M42 0V103H537V0H42ZM232 169V532H347V169H232ZM42 294V407H537V294H42Z" />
<glyph unicode="&#xb2;" horiz-adv-x="361" d="M37 352V428L155 510Q184 530 200 550T216 596Q216 616 206 626T179 637Q160 637 150 625T136 592H34Q37 644 76 678T188 712Q234 712 264 697T310 656T325 603Q325 564 299 536T216 475L147 433H324V352H37Z" />
<glyph unicode="&#xb3;" horiz-adv-x="356" d="M177 348Q101 348 63 379T20 463H125Q127 448 133 439T149 426T172 422Q193 422 205 432T217 463Q217 484 203 495T166 506H127V556H162Q186 556 199 566T213 598Q213 617 201 627T168 637Q149 637 138 628T122 600H25Q27
630 44 656T94 697T179 712Q242 712 282 683T322 609Q322 578 305 559T256 531V529Q289 519 308 499T327 447Q327 403 287 376T177 348Z" />
<glyph unicode="&#xb4;" horiz-adv-x="235" d="M12 547L0 636L219 761V761L235 658L12 547Z" />
<glyph unicode="&#xb5;" horiz-adv-x="624" d="M66 -220V496H201V230Q201 168 226 135T306 102Q340 102 366 118T408 166T423 240V496H558V0H440L429 83V83Q406 40 363 14T260 -12Q243 -12 229 -9T201 2V-220H66Z" />
<glyph unicode="&#xb6;" horiz-adv-x="652" d="M287 -100V281H269Q186 281 134 310T57 386T32 490Q32 547 57 594T134 671T269 700H584V-100H470V596H400V-100H287Z" />
<glyph unicode="&#xb7;" horiz-adv-x="252" d="M127 248Q89 248 66 270T43 326Q43 359 66 381T127 404Q163 404 186 382T209 326Q209 293 186 271T127 248Z" />
<glyph unicode="&#xb8;" horiz-adv-x="266" d="M0 -264V-187H115Q140 -187 153 -179T166 -152Q166 -134 153 -126T115 -118H53V7H137V-48Q170 -47 199 -58T247 -92T266 -154Q266 -191 248 -215T200 -252T135 -264H0Z" />
<glyph unicode="&#xb9;" horiz-adv-x="237" d="M93 352V607L23 591V655L138 704H197V352H93Z" />
<glyph unicode="&#xba;" horiz-adv-x="486" d="M242 349Q185 349 142 372T75 436T50 531Q50 585 74 626T142 689T243 712Q300 712 343 690T411 626T436 531Q436 477 412 436T343 372T242 349ZM242 430Q266 430 286 441T318 475T330 530Q330 564 318 586T287 620T242
632Q218 632 199 621T168 587T156 530Q156 498 167 476T198 442T242 430Z" />
<glyph unicode="&#xbb;" horiz-adv-x="514" d="M177 120H50L142 295L50 470H177L266 295L177 120ZM383 120H256L348 295L256 470H383L472 295L383 120Z" />
<glyph unicode="&#xbc;" horiz-adv-x="838" d="M93 352V607L23 591V655L138 704H197V352H93ZM133 0L526 700H658L264 0H133ZM679 0V61H514V129L668 348H779V131H816V61H779V0H679ZM616 131H687V238V238L616 131Z" />
<glyph unicode="&#xbd;" horiz-adv-x="873" d="M93 352V607L23 591V655L138 704H197V352H93ZM133 0L526 700H658L264 0H133ZM549 0V76L667 158Q696 178 712 198T728 244Q728 264 718 274T691 285Q672 285 662 273T648 240H546Q549 292 588 326T700 360Q746 360
776 345T822 304T837 251Q837 212 811 184T728 123L659 81H836V0H549Z" />
<glyph unicode="&#xbe;" horiz-adv-x="925" d="M177 348Q101 348 63 379T20 463H125Q127 448 133 439T149 426T172 422Q193 422 205 432T217 463Q217 484 203 495T166 506H127V556H162Q186 556 199 566T213 598Q213 617 201 627T168 637Q149 637 138 628T122 600H25Q27
630 44 656T94 697T179 712Q242 712 282 683T322 609Q322 578 305 559T256 531V529Q289 519 308 499T327 447Q327 403 287 376T177 348ZM220 0L613 700H745L351 0H220ZM766 0V61H601V129L755 348H866V131H903V61H866V0H766ZM703 131H774V238V238L703 131Z" />
<glyph unicode="&#xbf;" horiz-adv-x="538" d="M396 284L400 123H352Q314 123 281 119T224 102T185 67T171 9Q171 -21 184 -43T219 -78T274 -90Q307 -90 330 -78T365 -44T378 8H506Q507 -52 479 -99T398 -174T272 -201Q205 -201 153 -177T70 -105T40 9Q40 78 70
122T153 189T273 212L276 284H396ZM335 516Q372 516 395 493T419 438Q419 405 396 382T335 359Q299 359 276 382T253 438Q253 470 276 493T335 516Z" />
<glyph unicode="&#xc0;" horiz-adv-x="709" d="M22 0L278 700H431L686 0H543L354 546V546L164 0H22ZM135 159L171 264H527L562 159H135ZM459 743L237 855L252 958V958L472 832L459 743Z" />
<glyph unicode="&#xc1;" horiz-adv-x="709" d="M22 0L278 700H431L686 0H543L354 546V546L164 0H22ZM135 159L171 264H527L562 159H135ZM249 743L237 832L456 958V958L472 855L249 743Z" />
<glyph unicode="&#xc2;" horiz-adv-x="709" d="M22 0L278 700H431L686 0H543L354 546V546L164 0H22ZM135 159L171 264H527L562 159H135ZM207 745V842L355 921L502 842V745L355 828L207 745Z" />
<glyph unicode="&#xc3;" horiz-adv-x="709" d="M22 0L278 700H431L686 0H543L354 546V546L164 0H22ZM135 159L171 264H527L562 159H135ZM418 751Q389 751 369 762T331 785T293 797Q277 797 266 786T250 752H179Q190 819 221 849T299 880Q328 880 348 869T385 846T424
834Q441 834 452 845T467 879H538Q528 813 497 782T418 751Z" />
<glyph unicode="&#xc4;" horiz-adv-x="709" d="M22 0L278 700H431L686 0H543L354 546V546L164 0H22ZM135 159L171 264H527L562 159H135ZM262 767Q236 767 218 785T199 831Q199 858 217 876T262 895Q290 895 308 877T327 831Q327 804 309 786T262 767ZM446 767Q419
767 401 785T382 831Q382 858 400 876T446 895Q473 895 491 877T510 831Q510 804 492 786T446 767Z" />
<glyph unicode="&#xc5;" horiz-adv-x="709" d="M22 0L278 700H431L686 0H543L354 546V546L164 0H22ZM135 159L171 264H527L562 159H135ZM355 749Q308 749 274 779T240 863Q240 916 274 946T355 976Q403 976 437 946T471 863Q471 810 437 780T355 749ZM355 809Q377
809 392 824T407 863Q407 888 392 902T355 916Q334 916 319 902T304 863Q304 839 319 824T355 809Z" />
<glyph unicode="&#xc6;" horiz-adv-x="945" d="M22 0L398 700H891V593H623V408H861V304H623V107H891V0H488V597V597L169 0H22ZM166 135L222 239H552V135H166Z" />
<glyph unicode="&#xc7;" horiz-adv-x="738" d="M383 -12Q278 -12 203 33T87 160T46 349Q46 456 86 538T202 666T383 712Q510 712 591 649T692 471H545Q532 527 491 558T382 590Q320 590 276 561T207 478T183 349Q183 275 207 221T275 138T382 109Q449 109 490
138T544 221H692Q672 112 591 50T383 -12ZM280 -267V-190H395Q420 -190 433 -182T446 -155Q446 -137 433 -129T395 -121H333V4H417V-51Q450 -50 479 -61T527 -95T546 -157Q546 -194 528 -218T480 -255T415 -267H280Z" />
<glyph unicode="&#xc8;" horiz-adv-x="583" d="M69 0V700H529V591H204V408H499V303H204V109H529V0H69ZM404 743L182 855L197 958V958L417 832L404 743Z" />
<glyph unicode="&#xc9;" horiz-adv-x="583" d="M69 0V700H529V591H204V408H499V303H204V109H529V0H69ZM194 743L182 832L401 958V958L417 855L194 743Z" />
<glyph unicode="&#xca;" horiz-adv-x="583" d="M69 0V700H529V591H204V408H499V303H204V109H529V0H69ZM152 745V842L300 921L447 842V745L300 828L152 745Z" />
<glyph unicode="&#xcb;" horiz-adv-x="583" d="M69 0V700H529V591H204V408H499V303H204V109H529V0H69ZM207 767Q181 767 163 785T144 831Q144 858 162 876T207 895Q235 895 253 877T272 831Q272 804 254 786T207 767ZM391 767Q364 767 346 785T327 831Q327 858
345 876T391 895Q418 895 436 877T455 831Q455 804 437 786T391 767Z" />
<glyph unicode="&#xcc;" horiz-adv-x="272" d="M69 0V700H204V0H69ZM241 743L19 855L34 958V958L254 832L241 743Z" />
<glyph unicode="&#xcd;" horiz-adv-x="272" d="M69 0V700H204V0H69ZM31 743L19 832L238 958V958L254 855L31 743Z" />
<glyph unicode="&#xce;" horiz-adv-x="272" d="M69 0V700H204V0H69ZM245 745V842L393 921L540 842V745L393 828L245 745Z" />
<glyph unicode="&#xcf;" horiz-adv-x="272" d="M69 0V700H204V0H69ZM300 767Q274 767 256 785T237 831Q237 858 255 876T300 895Q328 895 346 877T365 831Q365 804 347 786T300 767ZM484 767Q457 767 439 785T420 831Q420 858 438 876T484 895Q511 895 529 877T548
831Q548 804 530 786T484 767Z" />
<glyph unicode="&#xd0;" horiz-adv-x="719" d="M6 293V408H387V293H6ZM80 0V700H315Q437 700 516 657T634 535T673 350Q673 244 635 166T517 44T315 0H80ZM215 116H308Q394 116 443 144T514 224T535 350Q535 424 514 476T444 557T308 585H215V116Z" />
<glyph unicode="&#xd1;" horiz-adv-x="729" d="M69 0V700H204L526 217V217V700H661V0H526L204 482V482V0H69ZM428 751Q399 751 379 762T341 785T303 797Q287 797 276 786T260 752H189Q200 819 231 849T309 880Q338 880 358 869T395 846T434 834Q451 834 462 845T477
879H548Q538 813 507 782T428 751Z" />
<glyph unicode="&#xd2;" horiz-adv-x="784" d="M392 -12Q290 -12 212 34T90 161T46 350Q46 457 90 538T212 666T392 712Q495 712 573 666T694 539T738 350Q738 243 695 162T573 34T392 -12ZM392 109Q456 109 502 138T575 222T601 350Q601 425 575 478T503 561T392
590Q329 590 282 561T209 479T183 350Q183 276 209 222T282 139T392 109ZM497 743L275 855L290 958V958L510 832L497 743Z" />
<glyph unicode="&#xd3;" horiz-adv-x="784" d="M392 -12Q290 -12 212 34T90 161T46 350Q46 457 90 538T212 666T392 712Q495 712 573 666T694 539T738 350Q738 243 695 162T573 34T392 -12ZM392 109Q456 109 502 138T575 222T601 350Q601 425 575 478T503 561T392
590Q329 590 282 561T209 479T183 350Q183 276 209 222T282 139T392 109ZM287 743L275 832L494 958V958L510 855L287 743Z" />
<glyph unicode="&#xd4;" horiz-adv-x="784" d="M392 -12Q290 -12 212 34T90 161T46 350Q46 457 90 538T212 666T392 712Q495 712 573 666T694 539T738 350Q738 243 695 162T573 34T392 -12ZM392 109Q456 109 502 138T575 222T601 350Q601 425 575 478T503 561T392
590Q329 590 282 561T209 479T183 350Q183 276 209 222T282 139T392 109ZM245 745V842L393 921L540 842V745L393 828L245 745Z" />
<glyph unicode="&#xd5;" horiz-adv-x="784" d="M392 -12Q290 -12 212 34T90 161T46 350Q46 457 90 538T212 666T392 712Q495 712 573 666T694 539T738 350Q738 243 695 162T573 34T392 -12ZM392 109Q456 109 502 138T575 222T601 350Q601 425 575 478T503 561T392
590Q329 590 282 561T209 479T183 350Q183 276 209 222T282 139T392 109ZM456 751Q427 751 407 762T369 785T331 797Q315 797 304 786T288 752H217Q228 819 259 849T337 880Q366 880 386 869T423 846T462 834Q479 834 490 845T505 879H576Q566 813 535 782T456
751Z" />
<glyph unicode="&#xd6;" horiz-adv-x="784" d="M392 -12Q290 -12 212 34T90 161T46 350Q46 457 90 538T212 666T392 712Q495 712 573 666T694 539T738 350Q738 243 695 162T573 34T392 -12ZM392 109Q456 109 502 138T575 222T601 350Q601 425 575 478T503 561T392
590Q329 590 282 561T209 479T183 350Q183 276 209 222T282 139T392 109ZM300 767Q274 767 256 785T237 831Q237 858 255 876T300 895Q328 895 346 877T365 831Q365 804 347 786T300 767ZM484 767Q457 767 439 785T420 831Q420 858 438 876T484 895Q511 895 529
877T548 831Q548 804 530 786T484 767Z" />
<glyph unicode="&#xd7;" horiz-adv-x="579" d="M166 87L86 166L210 290L89 411L168 490L290 369L413 493L492 414L369 290L490 169L411 89L289 211L166 87Z" />
<glyph unicode="&#xd8;" horiz-adv-x="777" d="M26 0L625 700H752L154 0H26ZM391 -12Q289 -12 211 34T89 161T45 350Q45 457 89 538T211 666T391 712Q494 712 572 666T694 539T738 350Q738 243 695 162T573 34T391 -12ZM391 109Q455 109 502 138T574 222T600 350Q600
425 575 478T502 561T391 590Q328 590 281 561T209 479T183 350Q183 276 208 222T281 139T391 109Z" />
<glyph unicode="&#xd9;" horiz-adv-x="685" d="M340 -12Q263 -12 200 19T100 112T63 270V700H198V269Q198 217 215 182T264 129T342 112Q388 112 420 129T470 181T487 269V700H622V270Q622 174 584 112T482 19T340 -12ZM447 743L225 855L240 958V958L460 832L447 743Z" />
<glyph unicode="&#xda;" horiz-adv-x="685" d="M340 -12Q263 -12 200 19T100 112T63 270V700H198V269Q198 217 215 182T264 129T342 112Q388 112 420 129T470 181T487 269V700H622V270Q622 174 584 112T482 19T340 -12ZM237 743L225 832L444 958V958L460 855L237 743Z" />
<glyph unicode="&#xdb;" horiz-adv-x="685" d="M340 -12Q263 -12 200 19T100 112T63 270V700H198V269Q198 217 215 182T264 129T342 112Q388 112 420 129T470 181T487 269V700H622V270Q622 174 584 112T482 19T340 -12ZM195 745V842L343 921L490 842V745L343 828L195
745Z" />
<glyph unicode="&#xdc;" horiz-adv-x="685" d="M340 -12Q263 -12 200 19T100 112T63 270V700H198V269Q198 217 215 182T264 129T342 112Q388 112 420 129T470 181T487 269V700H622V270Q622 174 584 112T482 19T340 -12ZM250 767Q224 767 206 785T187 831Q187 858
205 876T250 895Q278 895 296 877T315 831Q315 804 297 786T250 767ZM434 767Q407 767 389 785T370 831Q370 858 388 876T434 895Q461 895 479 877T498 831Q498 804 480 786T434 767Z" />
<glyph unicode="&#xdd;" horiz-adv-x="635" d="M250 0V246L14 700H167L332 354H305L469 700H621L385 246V0H250ZM212 743L200 832L419 958V958L435 855L212 743Z" />
<glyph unicode="&#xde;" horiz-adv-x="614" d="M69 0V700H204V566H332Q416 566 472 538T555 461T582 349Q582 292 556 243T475 164T332 134H204V0H69ZM204 243H324Q388 243 416 272T445 349Q445 400 417 428T324 456H204V243Z" />
<glyph unicode="&#xdf;" horiz-adv-x="711" d="M475 -10Q383 -10 325 38T257 176H383Q387 137 410 114T473 90Q509 90 528 106T548 152Q548 181 530 199T458 236Q377 265 341 294T305 370Q305 397 317 415T348 448T385 474T416 503T429 540Q429 578 400 598T320
619Q259 619 230 586T200 495V0H67V506Q67 573 97 624T186 703T326 732Q401 732 454 709T535 645T563 556Q563 525 551 504T521 467T484 441T453 417T440 391Q440 379 448 369T477 349T540 323Q615 296 647 258T680 161Q680 111 655 72T584 12T475 -10Z" />
<glyph unicode="&#xe0;" horiz-adv-x="586" d="M236 -12Q173 -12 132 8T72 63T52 140Q52 186 75 221T146 276T266 296H391Q391 333 381 357T350 394T294 406Q256 406 230 390T197 339H66Q71 393 101 432T182 494T295 516Q366 516 418 492T498 423T526 312V0H412L397
77V77Q386 57 371 41T336 13T291 -5T236 -12ZM268 92Q294 92 314 101T350 127T373 165T385 212V213H282Q251 213 232 206T203 184T194 152Q194 132 203 119T229 99T268 92ZM394 547L172 658L187 761V761L407 636L394 547Z" />
<glyph unicode="&#xe1;" horiz-adv-x="586" d="M236 -12Q173 -12 132 8T72 63T52 140Q52 186 75 221T146 276T266 296H391Q391 333 381 357T350 394T294 406Q256 406 230 390T197 339H66Q71 393 101 432T182 494T295 516Q366 516 418 492T498 423T526 312V0H412L397
77V77Q386 57 371 41T336 13T291 -5T236 -12ZM268 92Q294 92 314 101T350 127T373 165T385 212V213H282Q251 213 232 206T203 184T194 152Q194 132 203 119T229 99T268 92ZM184 547L172 636L391 761V761L407 658L184 547Z" />
<glyph unicode="&#xe2;" horiz-adv-x="586" d="M236 -12Q173 -12 132 8T72 63T52 140Q52 186 75 221T146 276T266 296H391Q391 333 381 357T350 394T294 406Q256 406 230 390T197 339H66Q71 393 101 432T182 494T295 516Q366 516 418 492T498 423T526 312V0H412L397
77V77Q386 57 371 41T336 13T291 -5T236 -12ZM268 92Q294 92 314 101T350 127T373 165T385 212V213H282Q251 213 232 206T203 184T194 152Q194 132 203 119T229 99T268 92ZM142 550V646L290 726L437 646V550L290 632L142 550Z" />
<glyph unicode="&#xe3;" horiz-adv-x="586" d="M236 -12Q173 -12 132 8T72 63T52 140Q52 186 75 221T146 276T266 296H391Q391 333 381 357T350 394T294 406Q256 406 230 390T197 339H66Q71 393 101 432T182 494T295 516Q366 516 418 492T498 423T526 312V0H412L397
77V77Q386 57 371 41T336 13T291 -5T236 -12ZM268 92Q294 92 314 101T350 127T373 165T385 212V213H282Q251 213 232 206T203 184T194 152Q194 132 203 119T229 99T268 92ZM348 570Q319 570 299 581T261 603T223 615Q207 615 196 604T180 570H109Q120 637 151 668T229
699Q258 699 278 688T315 665T354 653Q371 653 382 664T397 698H468Q458 631 427 601T348 570Z" />
<glyph unicode="&#xe4;" horiz-adv-x="586" d="M236 -12Q173 -12 132 8T72 63T52 140Q52 186 75 221T146 276T266 296H391Q391 333 381 357T350 394T294 406Q256 406 230 390T197 339H66Q71 393 101 432T182 494T295 516Q366 516 418 492T498 423T526 312V0H412L397
77V77Q386 57 371 41T336 13T291 -5T236 -12ZM268 92Q294 92 314 101T350 127T373 165T385 212V213H282Q251 213 232 206T203 184T194 152Q194 132 203 119T229 99T268 92ZM197 570Q171 570 153 588T134 633Q134 660 152 678T197 697Q225 697 243 679T262 633Q262
606 244 588T197 570ZM381 570Q354 570 336 588T317 633Q317 660 335 678T381 697Q408 697 426 679T445 633Q445 606 427 588T381 570Z" />
<glyph unicode="&#xe5;" horiz-adv-x="586" d="M236 -12Q173 -12 132 8T72 63T52 140Q52 186 75 221T146 276T266 296H391Q391 333 381 357T350 394T294 406Q256 406 230 390T197 339H66Q71 393 101 432T182 494T295 516Q366 516 418 492T498 423T526 312V0H412L397
77V77Q386 57 371 41T336 13T291 -5T236 -12ZM268 92Q294 92 314 101T350 127T373 165T385 212V213H282Q251 213 232 206T203 184T194 152Q194 132 203 119T229 99T268 92ZM289 570Q242 570 208 600T174 683Q174 736 208 766T289 797Q337 797 371 767T405 683Q405
630 371 600T289 570ZM289 629Q311 629 326 644T341 683Q341 708 326 722T289 736Q268 736 253 722T238 683Q238 659 253 644T289 629Z" />
<glyph unicode="&#xe6;" horiz-adv-x="944" d="M246 -12Q182 -12 139 8T74 64T52 141Q52 187 74 223T144 279T263 299H394Q394 335 384 358T353 394T299 406Q264 406 238 390T205 341H74Q79 394 109 433T188 494T299 516Q358 516 403 498T478 447Q510 479 555
497T652 516Q726 516 781 483T868 394T900 265Q900 255 900 243T897 218H531Q534 180 550 154T592 113T650 98Q691 98 716 117T754 165H889Q876 116 843 76T762 12T652 -12Q587 -12 534 14T447 87Q427 57 398 35T331 1T246 -12ZM267 92Q299 92 324 108T366 150T388
210V216H281Q251 216 232 209T203 187T194 155Q194 135 203 122T228 100T267 92ZM534 300H763Q760 350 729 378T653 406Q624 406 599 394T557 359T534 300Z" />
<glyph unicode="&#xe7;" horiz-adv-x="607" d="M310 -12Q234 -12 175 22T83 115T50 250Q50 328 83 387T175 481T310 516Q407 516 473 465T557 325H414Q405 360 377 380T309 400Q274 400 247 383T204 332T188 252Q188 217 197 190T222 143T260 113T309 103Q335
103 356 112T393 137T414 178H557Q539 91 473 40T310 -12ZM215 -267V-190H330Q355 -190 368 -182T381 -155Q381 -137 368 -129T330 -121H268V4H352V-51Q385 -50 414 -61T462 -95T481 -157Q481 -194 463 -218T415 -255T350 -267H215Z" />
<glyph unicode="&#xe8;" horiz-adv-x="602" d="M308 -12Q232 -12 174 20T83 111T50 247Q50 326 82 386T172 481T308 516Q383 516 439 483T526 394T557 267Q557 257 557 245T555 219H146V301H421Q418 350 387 378T308 406Q274 406 245 391T200 343T183 262V233Q183
192 198 162T242 115T307 98Q344 98 368 114T405 155H543Q529 108 496 70T415 10T308 -12ZM410 547L188 658L203 761V761L423 636L410 547Z" />
<glyph unicode="&#xe9;" horiz-adv-x="602" d="M308 -12Q232 -12 174 20T83 111T50 247Q50 326 82 386T172 481T308 516Q383 516 439 483T526 394T557 267Q557 257 557 245T555 219H146V301H421Q418 350 387 378T308 406Q274 406 245 391T200 343T183 262V233Q183
192 198 162T242 115T307 98Q344 98 368 114T405 155H543Q529 108 496 70T415 10T308 -12ZM200 547L188 636L407 761V761L423 658L200 547Z" />
<glyph unicode="&#xea;" horiz-adv-x="602" d="M308 -12Q232 -12 174 20T83 111T50 247Q50 326 82 386T172 481T308 516Q383 516 439 483T526 394T557 267Q557 257 557 245T555 219H146V301H421Q418 350 387 378T308 406Q274 406 245 391T200 343T183 262V233Q183
192 198 162T242 115T307 98Q344 98 368 114T405 155H543Q529 108 496 70T415 10T308 -12ZM158 550V646L306 726L453 646V550L306 632L158 550Z" />
<glyph unicode="&#xeb;" horiz-adv-x="602" d="M308 -12Q232 -12 174 20T83 111T50 247Q50 326 82 386T172 481T308 516Q383 516 439 483T526 394T557 267Q557 257 557 245T555 219H146V301H421Q418 350 387 378T308 406Q274 406 245 391T200 343T183 262V233Q183
192 198 162T242 115T307 98Q344 98 368 114T405 155H543Q529 108 496 70T415 10T308 -12ZM213 570Q187 570 169 588T150 633Q150 660 168 678T213 697Q241 697 259 679T278 633Q278 606 260 588T213 570ZM397 570Q370 570 352 588T333 633Q333 660 351 678T397
697Q424 697 442 679T461 633Q461 606 443 588T397 570Z" />
<glyph unicode="&#xec;" horiz-adv-x="267" d="M66 0V504H201V0H66ZM238 547L16 658L31 761V761L251 636L238 547Z" />
<glyph unicode="&#xed;" horiz-adv-x="267" d="M66 0V504H201V0H66ZM28 547L16 636L235 761V761L251 658L28 547Z" />
<glyph unicode="&#xee;" horiz-adv-x="267" d="M66 0V504H201V0H66ZM242 550V646L390 726L537 646V550L390 632L242 550Z" />
<glyph unicode="&#xef;" horiz-adv-x="267" d="M66 0V504H201V0H66ZM297 570Q271 570 253 588T234 633Q234 660 252 678T297 697Q325 697 343 679T362 633Q362 606 344 588T297 570ZM481 570Q454 570 436 588T417 633Q417 660 435 678T481 697Q508 697 526 679T545
633Q545 606 527 588T481 570Z" />
<glyph unicode="&#xf0;" horiz-adv-x="640" d="M317 -12Q239 -12 179 22T84 114T50 247Q50 322 83 380T175 471T309 504Q347 504 380 494T442 462Q429 494 411 526T371 589T324 647T269 700H396Q447 656 484 605T544 499T579 391T590 287Q590 195 554 128T457
24T317 -12ZM320 103Q356 103 386 120T434 170T452 247Q452 291 434 323T386 372T320 390Q284 390 254 373T206 323T188 247Q188 202 206 170T254 121T320 103ZM255 535V615L548 709V629L255 535Z" />
<glyph unicode="&#xf1;" horiz-adv-x="617" d="M66 0V504H185L195 422V422Q218 464 260 490T362 516Q425 516 468 490T533 414T556 291V0H422V278Q422 338 397 370T318 402Q284 402 258 386T216 341T201 269V0H66ZM391 570Q362 570 342 581T304 603T266 615Q250
615 239 604T223 570H152Q163 637 194 668T272 699Q301 699 321 688T358 665T397 653Q414 653 425 664T440 698H511Q501 631 470 601T391 570Z" />
<glyph unicode="&#xf2;" horiz-adv-x="610" d="M304 -12Q232 -12 175 21T84 114T50 251Q50 330 83 389T175 482T305 516Q378 516 435 483T526 390T560 252Q560 174 527 115T435 22T304 -12ZM304 105Q338 105 364 121T406 170T422 252Q422 301 407 333T365 382T305
399Q273 399 246 383T204 334T188 252Q188 203 203 170T245 121T304 105ZM410 547L188 658L203 761V761L423 636L410 547Z" />
<glyph unicode="&#xf3;" horiz-adv-x="610" d="M304 -12Q232 -12 175 21T84 114T50 251Q50 330 83 389T175 482T305 516Q378 516 435 483T526 390T560 252Q560 174 527 115T435 22T304 -12ZM304 105Q338 105 364 121T406 170T422 252Q422 301 407 333T365 382T305
399Q273 399 246 383T204 334T188 252Q188 203 203 170T245 121T304 105ZM200 547L188 636L407 761V761L423 658L200 547Z" />
<glyph unicode="&#xf4;" horiz-adv-x="610" d="M304 -12Q232 -12 175 21T84 114T50 251Q50 330 83 389T175 482T305 516Q378 516 435 483T526 390T560 252Q560 174 527 115T435 22T304 -12ZM304 105Q338 105 364 121T406 170T422 252Q422 301 407 333T365 382T305
399Q273 399 246 383T204 334T188 252Q188 203 203 170T245 121T304 105ZM158 550V646L306 726L453 646V550L306 632L158 550Z" />
<glyph unicode="&#xf5;" horiz-adv-x="610" d="M304 -12Q232 -12 175 21T84 114T50 251Q50 330 83 389T175 482T305 516Q378 516 435 483T526 390T560 252Q560 174 527 115T435 22T304 -12ZM304 105Q338 105 364 121T406 170T422 252Q422 301 407 333T365 382T305
399Q273 399 246 383T204 334T188 252Q188 203 203 170T245 121T304 105ZM365 570Q336 570 316 581T278 603T240 615Q224 615 213 604T197 570H126Q137 637 168 668T246 699Q275 699 295 688T332 665T371 653Q388 653 399 664T414 698H485Q475 631 444 601T365
570Z" />
<glyph unicode="&#xf6;" horiz-adv-x="610" d="M304 -12Q232 -12 175 21T84 114T50 251Q50 330 83 389T175 482T305 516Q378 516 435 483T526 390T560 252Q560 174 527 115T435 22T304 -12ZM304 105Q338 105 364 121T406 170T422 252Q422 301 407 333T365 382T305
399Q273 399 246 383T204 334T188 252Q188 203 203 170T245 121T304 105ZM213 570Q187 570 169 588T150 633Q150 660 168 678T213 697Q241 697 259 679T278 633Q278 606 260 588T213 570ZM397 570Q370 570 352 588T333 633Q333 660 351 678T397 697Q424 697 442
679T461 633Q461 606 443 588T397 570Z" />
<glyph unicode="&#xf7;" horiz-adv-x="579" d="M72 233V346H507V233H72ZM291 31Q253 31 230 53T207 108Q207 142 230 164T291 187Q327 187 350 165T373 108Q373 76 350 54T291 31ZM291 396Q253 396 230 418T207 474Q207 507 230 529T291 552Q327 552 350 530T373
474Q373 441 350 419T291 396Z" />
<glyph unicode="&#xf8;" horiz-adv-x="594" d="M28 0L462 504H566L133 0H28ZM296 -12Q224 -12 166 21T75 114T42 251Q42 330 75 389T167 482T297 516Q370 516 427 483T518 390T552 252Q552 174 519 115T427 22T296 -12ZM297 105Q330 105 356 121T398 170T414 252Q414
301 399 333T357 382T297 399Q265 399 238 383T195 334T179 252Q179 203 195 170T237 121T297 105Z" />
<glyph unicode="&#xf9;" horiz-adv-x="616" d="M254 -12Q193 -12 150 13T83 88T60 211V504H195V225Q195 164 220 133T299 102Q333 102 359 117T400 162T416 235V504H550V0H432L421 82V82Q399 39 356 14T254 -12ZM408 547L186 658L201 761V761L421 636L408 547Z" />
<glyph unicode="&#xfa;" horiz-adv-x="616" d="M254 -12Q193 -12 150 13T83 88T60 211V504H195V225Q195 164 220 133T299 102Q333 102 359 117T400 162T416 235V504H550V0H432L421 82V82Q399 39 356 14T254 -12ZM198 547L186 636L405 761V761L421 658L198 547Z" />
<glyph unicode="&#xfb;" horiz-adv-x="616" d="M254 -12Q193 -12 150 13T83 88T60 211V504H195V225Q195 164 220 133T299 102Q333 102 359 117T400 162T416 235V504H550V0H432L421 82V82Q399 39 356 14T254 -12ZM156 550V646L304 726L451 646V550L304 632L156 550Z" />
<glyph unicode="&#xfc;" horiz-adv-x="616" d="M254 -12Q193 -12 150 13T83 88T60 211V504H195V225Q195 164 220 133T299 102Q333 102 359 117T400 162T416 235V504H550V0H432L421 82V82Q399 39 356 14T254 -12ZM212 570Q186 570 168 588T149 633Q149 660 167
678T212 697Q240 697 258 679T277 633Q277 606 259 588T212 570ZM396 570Q369 570 351 588T332 633Q332 660 350 678T396 697Q423 697 441 679T460 633Q460 606 442 588T396 570Z" />
<glyph unicode="&#xfd;" horiz-adv-x="604" d="M130 -220L252 56H222L20 504H167L311 179V179L441 504H584L273 -220H130ZM197 547L185 636L404 761V761L420 658L197 547Z" />
<glyph unicode="&#xfe;" horiz-adv-x="655" d="M66 -220V720H201V434Q217 456 239 474T291 504T363 516Q434 516 488 482T573 387T605 251Q605 175 573 116T487 22T364 -12Q308 -12 268 8T201 65V-220H66ZM332 106Q372 106 402 124T450 175T467 251Q467 294 450
327T403 379T332 398Q293 398 263 380T215 328T197 252Q197 209 214 176T262 124T332 106Z" />
<glyph unicode="&#xff;" horiz-adv-x="604" d="M130 -220L252 56H222L20 504H167L311 179V179L441 504H584L273 -220H130ZM210 570Q184 570 166 588T147 633Q147 660 165 678T210 697Q238 697 256 679T275 633Q275 606 257 588T210 570ZM394 570Q367 570 349 588T330
633Q330 660 348 678T394 697Q421 697 439 679T458 633Q458 606 440 588T394 570Z" />
<glyph unicode="&#x2013;" horiz-adv-x="696" d="M77 238V351H619V238H77Z" />
<glyph unicode="&#x2014;" horiz-adv-x="918" d="M77 238V351H841V238H77Z" />
<glyph unicode="&#x2018;" horiz-adv-x="255" d="M30 444L133 700H225L171 444H30Z" />
<glyph unicode="&#x2019;" horiz-adv-x="255" d="M225 700L122 444H30L84 700H225Z" />
<glyph unicode="&#x201a;" horiz-adv-x="255" d="M22 -111L76 142H218L114 -111H22Z" />
<glyph unicode="&#x201c;" horiz-adv-x="453" d="M228 444L332 700H423L369 444H228ZM30 444L133 700H225L171 444H30Z" />
<glyph unicode="&#x201d;" horiz-adv-x="453" d="M225 700L122 444H30L84 700H225ZM423 700L320 444H228L282 700H423Z" />
<glyph unicode="&#x201e;" horiz-adv-x="454" d="M22 -111L76 142H218L114 -111H22ZM223 -111L277 142H418L315 -111H223Z" />
<glyph unicode="&#x2022;" horiz-adv-x="387" d="M193 195Q155 195 124 213T75 263T56 333Q56 372 74 403T124 453T193 472Q232 472 263 454T313 404T332 333Q332 295 314 264T264 214T193 195Z" />
<glyph unicode="&#x2039;" horiz-adv-x="311" d="M133 120L43 295L133 470H259L167 295L259 120H133Z" />
<glyph unicode="&#x203a;" horiz-adv-x="311" d="M179 120H52L144 295L52 470H179L268 295L179 120Z" />
</font>
</defs>
</svg>
