<?xml version="1.0" standalone="no"?>
<!DOCTYPE svg PUBLIC "-//W3C//DTD SVG 1.1//EN" "http://www.w3.org/Graphics/SVG/1.1/DTD/svg11.dtd">
<svg xmlns="http://www.w3.org/2000/svg">
<defs >
<font id="DMSans" horiz-adv-x="553" ><font-face
    font-family="DM Sans 9pt Medium"
    units-per-em="1000"
    panose-1="0 0 0 0 0 0 0 0 0 0"
    ascent="992"
    descent="-310"
    alphabetic="0" />
<glyph unicode=" " horiz-adv-x="256" />
<glyph unicode="!" horiz-adv-x="268" d="M92 208L80 700H188L177 208H92ZM135 -5Q106 -5 88 13T69 58Q69 85 87 103T135 122Q163 122 181 104T200 58Q200 32 182 14T135 -5Z" />
<glyph unicode="&quot;" horiz-adv-x="314" d="M197 547L185 755H276L266 547H197ZM50 547L38 755H130L119 547H50Z" />
<glyph unicode="#" horiz-adv-x="821" d="M438 0L588 712H681L533 0H438ZM142 0L291 712H386L237 0H142ZM42 189V278H730V189H42ZM87 436V524H776V436H87Z" />
<glyph unicode="$" horiz-adv-x="587" d="M259 -87V791H327V-87H259ZM302 -12Q225 -12 167 15T77 93T45 210H150Q151 172 168 141T219 91T302 72Q344 72 374 86T421 124T437 181Q437 218 420 242T375 281T309 309T230 335Q147 362 107 405T66 517Q66 576 94 619T172
687T292 712Q360 712 411 687T491 618T520 515H414Q414 542 400 568T358 610T289 627Q255 628 228 616T186 581T171 526Q171 494 184 475T224 441T284 416T361 390Q413 373 453 349T517 286T541 187Q541 135 514 90T434 17T302 -12Z" />
<glyph unicode="%" horiz-adv-x="822" d="M158 0L560 700H659L257 0H158ZM617 -12Q571 -12 534 9T475 68T453 159Q453 213 475 251T534 310T617 331Q665 331 701 310T759 251T781 159Q781 107 760 69T701 9T617 -12ZM616 62Q639 62 657 73T687 105T699 160Q699
193 688 214T659 247T617 258Q596 258 577 247T547 215T535 160Q535 127 546 106T576 73T616 62ZM206 368Q160 368 123 389T64 448T41 540Q41 593 63 631T123 690T207 711Q253 711 290 690T348 631T370 540Q370 487 349 449T290 389T206 368ZM206 442Q228 442 246
453T276 485T287 540Q287 573 276 595T247 628T207 639Q185 639 166 628T135 595T123 540Q123 508 134 486T165 453T206 442Z" />
<glyph unicode="&amp;" horiz-adv-x="748" d="M601 0L221 385Q174 431 155 469T135 551Q135 597 157 633T222 691T324 712Q383 712 424 691T488 632T510 548H412Q412 590 386 611T324 633Q281 633 257 611T232 552Q232 523 249 494T300 428L724 0H601ZM283 -12Q211
-12 156 14T71 89T41 202Q41 253 62 295T124 370T225 423L263 436L312 372L271 358Q204 335 172 297T140 207Q140 169 158 138T210 90T287 73Q344 73 389 97T478 178Q498 204 519 237T563 312L591 363H695L653 286Q627 235 601 194T547 120Q490 50 427 19T283 -12Z"
/>
<glyph unicode="&apos;" horiz-adv-x="171" d="M51 547L38 755H132L120 547H51Z" />
<glyph unicode="(" horiz-adv-x="383" d="M245 -145Q191 -92 146 -20T74 141T47 333Q47 436 73 524T145 686T245 811H347V802Q286 740 241 666T171 508T146 333Q146 242 171 158T241 0T347 -136V-145H245Z" />
<glyph unicode=")" horiz-adv-x="383" d="M137 -145H36V-136Q97 -74 141 0T211 158T236 333Q236 424 211 508T142 666T36 802V811H137Q193 759 237 686T309 525T336 333Q336 230 309 142T238 -19T137 -145Z" />
<glyph unicode="*" horiz-adv-x="490" d="M210 360L224 509L104 421L64 491L200 549L65 605L103 672L225 585L209 734H286L269 585L390 672L427 606L291 548L427 490L389 422L269 509L285 360H210Z" />
<glyph unicode="+" horiz-adv-x="559" d="M235 69V511H323V69H235ZM46 248V332H513V248H46Z" />
<glyph unicode="," horiz-adv-x="202" d="M10 -123L67 108H168L77 -123H10Z" />
<glyph unicode="-" horiz-adv-x="552" d="M330 253V337H734V253H330Z" />
<glyph unicode="." horiz-adv-x="215" d="M108 -5Q79 -5 61 13T42 58Q42 85 60 103T108 122Q137 122 155 104T173 58Q173 32 155 14T108 -5Z" />
<glyph unicode="/" horiz-adv-x="403" d="M27 -101L277 769H375L125 -101H27Z" />
<glyph unicode="0" horiz-adv-x="690" d="M346 -12Q253 -12 186 33T83 160T47 350Q47 458 83 539T186 666T346 712Q439 712 505 667T607 540T643 350Q643 242 608 161T506 34T346 -12ZM346 77Q402 77 446 110T516 204T541 350Q541 435 516 496T447 589T346 622Q289
622 244 590T174 496T149 350Q149 265 174 204T244 110T346 77Z" />
<glyph unicode="1" horiz-adv-x="328" d="M153 0V587L31 556V631L190 700H255V0H153Z" />
<glyph unicode="2" horiz-adv-x="577" d="M59 0V72Q129 126 192 181T304 290T382 397T410 498Q410 532 398 561T360 608T289 627Q246 627 218 608T175 558T160 488H63Q64 560 94 610T175 686T291 712Q358 712 407 688T483 617T510 503Q510 455 491 408T440 315T367
229T285 150T203 83H532V0H59Z" />
<glyph unicode="3" horiz-adv-x="594" d="M295 -12Q228 -12 173 12T85 86T50 211H150Q151 173 168 142T217 93T295 74Q340 74 370 91T416 137T432 202Q432 247 411 275T353 317T271 331H219V415H271Q334 415 371 444T409 526Q409 570 380 598T295 626Q239 626
207 594T170 513H71Q74 572 102 617T180 687T295 712Q365 712 412 688T484 622T509 532Q509 495 495 464T455 409T392 376Q432 368 464 345T514 286T532 201Q532 144 505 96T426 18T295 -12Z" />
<glyph unicode="4" horiz-adv-x="621" d="M391 0V143H40V221L375 700H490V230H590V143H490V0H391ZM149 230H397V590V590L149 230Z" />
<glyph unicode="5" horiz-adv-x="614" d="M314 -12Q240 -12 187 14T103 86T65 189H163Q173 138 213 106T314 73Q360 73 393 95T444 154T462 236Q462 284 444 319T393 375T317 395Q265 395 228 372T173 312H76L134 700H511V613H211L174 417Q198 444 238 461T331
479Q384 479 426 460T497 408T542 331T558 238Q558 185 541 140T493 61T416 7T314 -12Z" />
<glyph unicode="6" horiz-adv-x="630" d="M328 -12Q251 -12 199 16T114 93T68 201T53 324Q53 440 85 527T179 663T326 712Q395 712 443 686T519 615T553 518H460Q451 570 416 598T325 627Q276 627 237 597T176 504T150 347Q150 346 150 344T150 340Q165 370 193
395T259 434T343 449Q402 449 453 422T537 343T569 224Q569 163 540 109T456 22T328 -12ZM321 75Q364 75 397 93T450 145T470 220Q470 263 451 295T398 346T321 364Q278 364 244 345T190 293T170 219Q170 177 190 145T244 94T321 75Z" />
<glyph unicode="7" horiz-adv-x="535" d="M130 0L397 614H27V700H500V627L234 0H130Z" />
<glyph unicode="8" horiz-adv-x="616" d="M308 -12Q239 -12 184 13T96 85T63 192Q63 235 79 271T124 335T192 374Q140 395 110 436T80 526Q80 577 107 619T185 686T308 712Q380 712 431 687T508 619T535 526Q535 477 506 436T424 374Q463 362 492 335T537 272T553
192Q553 131 521 85T433 14T308 -12ZM308 74Q381 74 417 108T454 199Q454 262 415 295T308 328Q241 328 202 295T162 199Q162 143 198 109T308 74ZM308 407Q367 407 401 438T436 517Q436 572 402 600T308 628Q249 628 215 600T181 517Q181 469 215 438T308 407Z"
/>
<glyph unicode="9" horiz-adv-x="630" d="M304 -12Q236 -12 188 14T112 85T78 182H171Q181 130 216 102T305 73Q355 73 393 103T454 194T480 348Q481 351 481 354T481 360Q465 330 437 305T372 266T288 251Q229 251 178 278T94 357T61 476Q61 537 90 591T174 678T303
712Q380 712 432 684T516 607T562 499T577 376Q577 261 545 174T452 37T304 -12ZM310 336Q353 336 387 355T441 408T461 481Q461 523 441 555T387 606T309 625Q267 625 233 607T180 556T160 480Q160 437 179 405T233 354T310 336Z" />
<glyph unicode=":" horiz-adv-x="218" d="M108 -5Q79 -5 61 13T42 58Q42 85 60 103T108 122Q137 122 155 104T173 58Q173 32 155 14T108 -5ZM108 389Q79 389 61 407T42 452Q42 479 60 497T108 516Q137 516 155 498T173 452Q173 426 155 408T108 389Z" />
<glyph unicode=";" horiz-adv-x="243" d="M133 389Q104 389 86 407T67 452Q67 479 85 497T133 516Q162 516 180 498T198 452Q198 426 180 408T133 389ZM27 -123L84 108H185L94 -123H27Z" />
<glyph unicode="&lt;" horiz-adv-x="559" d="M462 46H335L98 274V274L335 504H462L224 274L462 46Z" />
<glyph unicode="=" horiz-adv-x="559" d="M75 354V440H483V354H75ZM75 141V227H483V141H75Z" />
<glyph unicode="&gt;" horiz-adv-x="559" d="M98 46L335 274L98 504H225L461 274V274L225 46H98Z" />
<glyph unicode="?" horiz-adv-x="528" d="M153 209L149 367H185Q226 367 262 372T327 391T371 433T388 505Q388 544 372 571T327 613T259 628Q220 628 191 614T145 573T129 509H34Q34 569 62 615T141 686T259 712Q325 712 376 687T456 616T485 505Q485 433 454
388T369 321T243 299L240 209H153ZM197 -5Q168 -5 150 13T131 58Q131 85 149 103T197 122Q226 122 244 104T262 58Q262 32 244 14T197 -5Z" />
<glyph unicode="@" horiz-adv-x="1018" d="M435 -204Q328 -204 247 -162T121 -43T76 141Q76 248 112 339T215 499T372 606T574 645Q686 645 768 602T896 483T942 305Q942 246 928 191T886 92T818 21T725 -6Q662 -6 634 32T613 131L616 164L634 126Q609 65 556
30T439 -6Q364 -6 322 40T280 164Q280 219 297 269T345 358T420 421T516 444Q576 444 611 413T653 321L632 308L655 434H738L689 154Q682 113 692 88T739 62Q770 62 793 84T831 141T855 219T863 301Q863 387 827 448T723 542T563 576Q473 576 399 543T270 452T185
316T155 149Q155 59 190 -4T292 -100T450 -133Q494 -133 537 -125T618 -99L634 -166Q589 -185 539 -194T435 -204ZM469 69Q509 69 541 90T595 150T622 239Q625 275 615 304T582 351T521 369Q486 369 458 353T411 310T381 249T370 180Q370 130 395 100T469 69Z"
/>
<glyph unicode="A" horiz-adv-x="678" d="M28 0L285 700H394L651 0H544L339 580V580L133 0H28ZM144 173L172 253H501L529 173H144Z" />
<glyph unicode="B" horiz-adv-x="614" d="M73 0V700H332Q405 700 454 677T527 613T552 521Q552 468 529 432T469 377T388 354L402 364Q448 363 486 340T546 277T568 191Q568 137 542 94T465 25T340 0H73ZM173 83H327Q393 83 429 113T466 200Q466 255 429 288T325
321H173V83ZM173 398H321Q384 398 417 427T450 509Q450 559 417 588T318 618H173V398Z" />
<glyph unicode="C" horiz-adv-x="724" d="M380 -12Q277 -12 203 33T88 160T47 350Q47 457 87 539T202 666T380 712Q503 712 579 653T677 487H567Q552 549 506 586T380 623Q309 623 257 590T177 496T149 350Q149 265 177 204T257 110T380 77Q459 77 505 112T567
209H677Q656 105 580 47T380 -12Z" />
<glyph unicode="D" horiz-adv-x="694" d="M73 0V700H288Q410 700 490 657T608 536T647 349Q647 241 609 163T491 43T288 0H73ZM173 84H284Q381 84 438 116T519 207T544 349Q544 432 520 492T438 584T284 616H173V84Z" />
<glyph unicode="E" horiz-adv-x="571" d="M73 0V700H515V618H173V394H485V314H173V82H515V0H73Z" />
<glyph unicode="F" horiz-adv-x="542" d="M73 0V700H508V618H173V391H453V311H173V0H73Z" />
<glyph unicode="G" horiz-adv-x="764" d="M376 -12Q277 -12 203 33T88 159T47 348Q47 455 88 537T207 665T391 712Q510 712 590 655T693 495H579Q564 553 516 586T390 620Q316 620 262 587T178 493T149 348Q149 263 178 202T260 109T382 77Q488 77 541 138T604
301H411V378H705V0H614L605 107V107Q581 68 550 42T476 2T376 -12Z" />
<glyph unicode="H" horiz-adv-x="691" d="M518 0V700H618V0H518ZM73 0V700H173V0H73ZM156 316V398H540V316H156Z" />
<glyph unicode="I" horiz-adv-x="246" d="M73 0V700H173V0H73Z" />
<glyph unicode="J" horiz-adv-x="514" d="M239 -12Q174 -12 127 12T54 84T28 196H129Q129 162 140 135T174 93T237 77Q276 77 298 92T331 132T341 191V700H441V191Q441 94 387 41T239 -12Z" />
<glyph unicode="K" horiz-adv-x="606" d="M73 0V700H173V396L453 700H578L318 422L583 0H461L247 344L173 265V0H73Z" />
<glyph unicode="L" horiz-adv-x="537" d="M73 0V700H173V79H493V0H73Z" />
<glyph unicode="M" horiz-adv-x="855" d="M73 0V700H191L428 227V227L664 700H783V0H683V525V525L466 98H389L173 524V524V0H73Z" />
<glyph unicode="N" horiz-adv-x="703" d="M73 0V700H173L530 163V163V700H630V0H530L173 536V536V0H73Z" />
<glyph unicode="O" horiz-adv-x="777" d="M388 -12Q287 -12 211 33T91 160T47 350Q47 457 90 538T210 666T388 712Q491 712 568 666T687 539T730 350Q730 242 688 161T568 34T388 -12ZM389 77Q461 77 515 110T598 204T628 350Q628 435 599 496T515 589T389 622Q317
622 263 590T179 496T149 350Q149 265 179 204T263 110T389 77Z" />
<glyph unicode="P" horiz-adv-x="591" d="M73 0V700H312Q396 700 450 672T530 597T556 490Q556 433 531 386T451 310T312 281H173V0H73ZM173 364H308Q387 364 420 398T454 490Q454 551 421 584T308 617H173V364Z" />
<glyph unicode="Q" horiz-adv-x="777" d="M568 -100L327 279H442L685 -100H568ZM388 -12Q287 -12 211 33T91 160T47 350Q47 457 90 538T210 666T388 712Q491 712 568 666T687 539T730 350Q730 242 688 161T568 34T388 -12ZM389 77Q461 77 515 110T598 204T628
350Q628 435 599 496T515 589T389 622Q317 622 263 590T179 496T149 350Q149 265 179 204T263 110T389 77Z" />
<glyph unicode="R" horiz-adv-x="606" d="M73 0V700H310Q393 700 446 672T524 598T550 492Q550 436 525 389T445 313T307 284H173V0H73ZM441 0L290 311H400L557 0H441ZM173 360H303Q377 360 412 396T447 490Q447 548 413 582T303 616H173V360Z" />
<glyph unicode="S" horiz-adv-x="587" d="M302 -12Q225 -12 167 15T77 93T45 210H150Q151 172 168 141T219 91T302 72Q344 72 374 86T421 124T437 181Q437 218 420 242T375 281T309 309T230 335Q147 362 107 405T66 517Q66 576 94 619T172 687T292 712Q360 712
411 687T491 618T520 515H414Q414 542 400 568T358 610T289 627Q255 628 228 616T186 581T171 526Q171 494 184 475T224 441T284 416T361 390Q413 373 453 349T517 286T541 187Q541 135 514 90T434 17T302 -12Z" />
<glyph unicode="T" horiz-adv-x="572" d="M236 0V618H29V700H544V618H336V0H236Z" />
<glyph unicode="U" horiz-adv-x="665" d="M331 -12Q257 -12 197 17T102 107T66 262V700H166V261Q166 198 187 158T245 98T333 78Q384 78 421 97T478 157T499 261V700H599V262Q599 168 563 108T466 18T331 -12Z" />
<glyph unicode="V" horiz-adv-x="680" d="M280 0L20 700H128L340 104V104L554 700H660L400 0H280Z" />
<glyph unicode="W" horiz-adv-x="984" d="M216 0L26 700H133L275 117V117L438 700H549L707 115V115L851 700H958L765 0H648L491 557V557L330 0H216Z" />
<glyph unicode="X" horiz-adv-x="624" d="M37 0L253 354L36 700H150L316 434V434L473 700H585L370 350L588 0H474L306 270V270L150 0H37Z" />
<glyph unicode="Y" horiz-adv-x="597" d="M249 0V260L18 700H131L312 332H287L467 700H579L349 260V0H249Z" />
<glyph unicode="Z" horiz-adv-x="552" d="M46 0V78L387 615H50V700H503V622L161 85H506V0H46Z" />
<glyph unicode="[" horiz-adv-x="333" d="M73 -158V811H275V729H167V-75H275V-158H73Z" />
<glyph unicode="\" horiz-adv-x="403" d="M375 -101H277L27 769H125L375 -101Z" />
<glyph unicode="]" horiz-adv-x="333" d="M260 -158H58V-75H167V729H58V811H260V-158Z" />
<glyph unicode="^" horiz-adv-x="639" d="M37 206L273 700H367L603 206H501L320 584V584L139 206H37Z" />
<glyph unicode="_" horiz-adv-x="681" d="M74 -132V-37H607V-132H74Z" />
<glyph unicode="`" horiz-adv-x="220" d="M210 547L0 661L13 743V743L220 616L210 547Z" />
<glyph unicode="a" horiz-adv-x="557" d="M235 -12Q173 -12 132 9T71 65T51 142Q51 192 77 227T151 282T266 301H397Q397 345 384 374T346 417T281 432Q236 432 204 411T164 347H64Q70 400 100 437T179 495T281 516Q352 516 400 491T472 421T497 312V0H410L402
85V85Q391 65 376 47T341 16T294 -4T235 -12ZM254 69Q286 69 312 82T356 117T384 168T395 227V230H276Q233 230 207 220T168 191T156 149Q156 124 167 107T201 79T254 69Z" />
<glyph unicode="b" horiz-adv-x="635" d="M343 -12Q302 -12 269 -1T210 31T168 77V77L158 0H68V720H168V425Q192 463 235 489T343 516Q415 516 470 482T555 388T586 251Q586 176 556 116T470 22T343 -12ZM327 75Q373 75 408 97T464 159T485 252Q485 305 465 344T409
406T327 429Q280 429 245 407T189 345T169 252Q169 199 189 159T244 97T327 75Z" />
<glyph unicode="c" horiz-adv-x="583" d="M301 -12Q228 -12 171 21T82 114T49 251Q49 330 81 389T171 482T301 516Q393 516 455 468T534 338H430Q420 382 385 406T300 430Q260 430 226 410T172 350T151 252Q151 209 163 176T195 119T243 85T300 73Q333 73 359
83T404 115T430 165H534Q517 85 455 37T301 -12Z" />
<glyph unicode="d" horiz-adv-x="636" d="M292 -12Q220 -12 165 22T80 116T49 252Q49 329 79 388T165 481T293 516Q352 516 397 493T467 426V720H567V0H478L467 78V78Q452 55 428 35T370 1T292 -12ZM308 75Q355 75 391 97T446 159T466 252Q466 305 447 344T391
406T308 429Q263 429 227 407T171 345T151 252Q151 199 171 159T227 97T308 75Z" />
<glyph unicode="e" horiz-adv-x="579" d="M296 -12Q224 -12 168 21T81 113T49 250Q49 330 80 389T168 482T298 516Q372 516 425 483T507 396T536 275Q536 265 536 254T534 228H122V299H436Q433 362 394 397T297 433Q256 433 222 415T168 361T147 271V243Q147 187
167 149T222 91T296 71Q344 71 375 92T421 149H521Q508 103 477 67T401 9T296 -12Z" />
<glyph unicode="f" horiz-adv-x="350" d="M95 0V572Q95 624 112 657T164 705T246 720H305V635H262Q226 635 211 621T195 570V0H95ZM21 419V504H316V419H21Z" />
<glyph unicode="g" horiz-adv-x="570" d="M273 -232Q204 -232 151 -215T69 -161T40 -73Q40 -46 52 -19T91 34T164 79L220 34Q169 15 152 -11T134 -63Q134 -93 152 -113T201 -143T273 -153Q312 -153 341 -142T386 -111T402 -64Q402 -32 378 -11T286 15Q229 19 190
26T123 43T77 65T45 90V113L145 216L226 188L117 87L138 132Q149 125 159 119T186 107T232 98T308 90Q376 85 417 66T478 15T497 -61Q497 -104 474 -143T401 -207T273 -232ZM273 155Q209 155 165 179T97 244T73 335Q73 386 96 426T165 491T273 516Q336 516 380
492T448 427T472 335Q472 285 449 244T381 179T273 155ZM273 235Q322 235 351 260T380 335Q380 384 351 409T273 435Q224 435 194 410T164 335Q164 286 194 261T273 235ZM355 425L331 504H538V435L355 425Z" />
<glyph unicode="h" horiz-adv-x="588" d="M68 0V720H168V422V422Q193 466 237 491T336 516Q396 516 439 492T505 419T528 297V0H429V286Q429 357 399 393T310 430Q270 430 238 411T187 356T168 267V0H68Z" />
<glyph unicode="i" horiz-adv-x="250" d="M75 0V504H175V0H75ZM126 599Q97 599 79 617T60 663Q60 690 78 707T126 725Q154 725 173 708T192 663Q192 635 173 617T126 599Z" />
<glyph unicode="j" horiz-adv-x="252" d="M-28 -220V-135H12Q48 -135 63 -120T78 -70V504H178V-72Q178 -124 161 -157T109 -205T27 -220H-28ZM129 599Q100 599 82 617T63 663Q63 690 81 707T129 725Q157 725 175 708T194 663Q194 635 176 617T129 599Z" />
<glyph unicode="k" horiz-adv-x="527" d="M385 0L153 276L363 504H484L234 237V312L511 0H385ZM68 0V720H168V0H68Z" />
<glyph unicode="l" horiz-adv-x="237" d="M68 0V720H168V0H68Z" />
<glyph unicode="m" horiz-adv-x="907" d="M68 0V504H158L165 433V433Q189 472 229 494T319 516Q357 516 388 506T443 474T482 422V422Q509 466 554 491T651 516Q712 516 756 492T823 419T846 298V0H747V288Q747 358 719 394T635 430Q598 430 569 411T524 356T507
268V0H407V288Q407 358 379 394T295 430Q260 430 231 411T185 356T168 268V0H68Z" />
<glyph unicode="n" horiz-adv-x="587" d="M68 0V504H158L164 418V418Q188 463 232 489T333 516Q393 516 436 492T503 420T527 298V0H427V288Q427 358 396 394T306 430Q267 430 236 412T187 357T168 269V0H68Z" />
<glyph unicode="o" horiz-adv-x="599" d="M298 -12Q227 -12 171 21T82 113T49 251Q49 331 82 390T172 483T300 516Q372 516 428 483T516 391T549 252Q549 172 517 113T427 21T298 -12ZM298 74Q339 74 372 94T426 153T447 252Q447 311 427 350T374 410T300 430Q260
430 226 410T172 351T151 252Q151 193 171 154T225 94T298 74Z" />
<glyph unicode="p" horiz-adv-x="635" d="M68 -220V504H158L168 426V426Q184 449 208 469T265 503T344 516Q416 516 470 481T555 387T586 251Q586 175 555 116T470 22T343 -12Q284 -12 239 11T168 77V-220H68ZM327 75Q373 75 408 97T464 159T485 252Q485 305 465
344T409 406T327 429Q280 429 245 407T189 345T169 252Q169 199 189 159T244 97T327 75Z" />
<glyph unicode="q" horiz-adv-x="636" d="M467 -220V78Q443 40 400 14T293 -12Q221 -12 166 22T80 116T49 252Q49 328 80 387T166 481T293 516Q334 516 367 505T426 473T467 426V426L478 504H567V-220H467ZM308 75Q355 75 391 97T446 159T466 252Q466 305 447
344T391 406T308 429Q263 429 227 407T171 345T151 252Q151 199 171 159T227 97T308 75Z" />
<glyph unicode="r" horiz-adv-x="382" d="M68 0V504H158L167 409V409Q184 443 211 466T274 503T358 516V410H322Q291 410 263 403T214 377T180 328T168 251V0H68Z" />
<glyph unicode="s" horiz-adv-x="511" d="M263 -12Q199 -12 151 9T75 68T41 157H143Q148 133 162 113T202 81T263 69Q296 69 317 78T349 104T359 140Q359 168 346 182T306 205T242 221Q207 227 175 237T117 264T76 304T61 365Q61 408 84 442T149 496T250 516Q334
516 385 476T445 363H348Q344 397 318 415T249 434Q206 434 183 417T160 372Q160 354 173 340T211 317T274 299Q327 289 369 274T436 230T461 147Q462 100 438 64T369 8T263 -12Z" />
<glyph unicode="t" horiz-adv-x="405" d="M275 0Q228 0 193 15T139 65T120 160V419H33V504H120L132 630H220V504H363V419H220V159Q220 116 238 101T300 85H358V0H275Z" />
<glyph unicode="u" horiz-adv-x="587" d="M253 -12Q194 -12 151 12T84 84T60 205V504H160V216Q160 145 191 109T280 73Q319 73 350 92T400 147T418 235V504H518V0H429L422 86V86Q399 40 355 14T253 -12Z" />
<glyph unicode="v" horiz-adv-x="539" d="M211 0L22 504H127L270 96V96L414 504H517L329 0H211Z" />
<glyph unicode="w" horiz-adv-x="781" d="M170 0L22 504H121L231 84L212 85L334 504H446L568 85L549 84L658 504H759L611 0H508L380 437H400L272 0H170Z" />
<glyph unicode="x" horiz-adv-x="520" d="M20 0L194 252L20 504H128L260 308V308L393 504H500L326 252L500 0H393L260 197V197L128 0H20Z" />
<glyph unicode="y" horiz-adv-x="571" d="M126 -220L249 56H220L21 504H129L287 138V138L446 504H551L231 -220H126Z" />
<glyph unicode="z" horiz-adv-x="468" d="M35 0V81L306 420H39V504H420V422L148 83H425V0H35Z" />
<glyph unicode="{" horiz-adv-x="441" d="M327 -160Q256 -160 212 -121T168 -4Q168 30 173 57T184 114T190 180Q190 205 181 226T149 263T85 286V366Q126 373 148 388T180 425T190 472Q190 509 185 537T174 594T168 655Q168 734 212 772T327 811H385V726H346Q306
726 286 708T265 647Q265 619 270 593T280 537T285 468Q285 416 260 378T175 327V325Q234 313 259 275T285 183Q285 145 281 116T271 60T265 5Q265 -38 285 -56T346 -75H385V-160H327Z" />
<glyph unicode="|" horiz-adv-x="246" d="M73 -100V720H173V-100H73Z" />
<glyph unicode="}" horiz-adv-x="441" d="M113 -160H55V-75H95Q134 -75 154 -57T175 5Q175 33 171 59T161 115T155 183Q155 236 181 274T265 325V327Q208 340 182 378T155 468Q155 507 160 536T170 592T175 647Q175 690 155 708T95 726H55V811H113Q185 811 228
773T272 655Q272 622 267 594T257 538T251 472Q251 447 260 426T292 389T355 366V286Q315 279 292 264T260 227T251 180Q251 144 256 115T267 58T272 -4Q272 -81 229 -120T113 -160Z" />
<glyph unicode="~" horiz-adv-x="559" d="M364 241Q335 241 312 251T269 275T230 299T189 309Q162 309 146 291T124 242H49Q57 296 77 330T127 381T194 398Q224 398 247 388T290 365T329 341T370 331Q397 331 414 349T434 397H510Q503 344 483 310T433 258T364 241Z" />
<glyph unicode="&#xa0;" horiz-adv-x="256" />
<glyph unicode="&#xa1;" horiz-adv-x="268" d="M92 302H177L188 -189H80L92 302ZM135 516Q163 516 181 498T200 452Q200 425 182 407T135 388Q106 388 88 406T69 452Q69 479 87 497T135 516Z" />
<glyph unicode="&#xa2;" horiz-adv-x="583" d="M255 -104V49H349V-104H255ZM255 455V608H349V455H255ZM301 -12Q228 -12 171 21T82 114T49 251Q49 330 81 389T171 482T301 516Q393 516 455 468T534 338H430Q420 382 385 406T300 430Q260 430 226 410T172 350T151
252Q151 209 163 176T195 119T243 85T300 73Q333 73 359 83T404 115T430 165H534Q517 85 455 37T301 -12Z" />
<glyph unicode="&#xa3;" horiz-adv-x="609" d="M84 0V62Q109 89 127 115T156 173T166 248Q166 280 158 309T137 368T117 431T108 505Q108 568 135 614T212 686T326 712Q399 712 446 684T519 608T548 503H456Q454 557 421 593T327 629Q294 629 266 616T220 574T203
500Q203 468 211 437T231 375T251 313T260 249Q260 203 244 161T189 82H550V0H84ZM44 306V375H422V306H44Z" />
<glyph unicode="&#xa4;" horiz-adv-x="541" d="M271 120Q218 120 178 141T114 203T91 297Q91 352 114 391T179 452T272 474Q323 474 364 453T428 392T452 297Q452 243 428 203T363 142T271 120ZM109 87L64 132L150 218L199 178L109 87ZM433 87L350 171L395 214L477
132L433 87ZM271 192Q293 192 314 202T349 236T363 297Q363 335 349 358T314 392T271 403Q248 403 227 393T193 359T180 297Q180 260 192 237T226 203T271 192ZM149 381L64 465L109 509L195 423L149 381ZM388 375L347 422L433 509L477 465L388 375Z" />
<glyph unicode="&#xa5;" horiz-adv-x="617" d="M59 164V235H559V164H59ZM276 322H59V392H268L276 322ZM360 322L368 392H559V322H360ZM259 0V260L28 700H141L322 332H297L477 700H589L359 260V0H259Z" />
<glyph unicode="&#xa6;" horiz-adv-x="246" d="M73 389V720H173V389H73ZM73 -100V231H173V-100H73Z" />
<glyph unicode="&#xa7;" horiz-adv-x="596" d="M295 -232Q227 -232 176 -207T97 -138T66 -35H172Q172 -62 186 -88T228 -130T297 -147Q349 -148 382 -121T416 -46Q416 -14 402 5T362 38T302 62T225 87Q175 104 134 129T69 192T45 290Q45 327 59 361T101 424Q88
443 81 466T74 517Q74 576 102 619T181 687T300 712Q368 712 419 687T499 618T528 515H423Q422 542 408 568T367 610T297 627Q246 628 213 601T179 526Q179 494 192 475T232 442T292 418T369 393Q421 376 461 351T526 288T550 190Q550 153 536 118T493 56Q507 37
513 14T520 -37Q521 -95 493 -139T414 -207T295 -232ZM418 115Q431 129 438 146T445 184Q445 220 430 243T387 281T324 308T247 335Q225 342 208 349T176 365Q163 352 157 335T150 296Q150 268 159 248T187 214T230 188T285 167T348 145Q368 139 385 131T418 115Z"
/>
<glyph unicode="&#xa8;" horiz-adv-x="317" d="M243 569Q220 569 204 584T188 623Q188 645 204 661T243 677Q265 677 280 661T296 623Q296 600 281 585T243 569ZM75 569Q52 569 37 584T21 623Q21 645 36 661T75 677Q97 677 113 661T129 623Q129 600 113 585T75 569Z" />
<glyph unicode="&#xa9;" horiz-adv-x="791" d="M396 -5Q292 -5 214 41T93 167T49 351Q49 455 92 535T214 660T396 705Q499 705 577 660T699 535T743 351Q743 247 699 167T577 41T396 -5ZM396 121Q336 121 287 148T208 227T178 351Q178 424 207 475T286 554T396
582Q471 582 527 542T602 427H512Q499 468 468 489T394 511Q358 511 329 493T282 440T264 351Q264 298 281 262T328 209T394 191Q438 191 468 212T512 274H602Q583 203 527 162T396 121ZM396 36Q490 36 558 76T663 187T700 351Q700 445 663 516T558 626T396 666Q302
666 234 627T129 516T92 351Q92 258 129 187T234 76T396 36Z" />
<glyph unicode="&#xaa;" horiz-adv-x="487" d="M219 347Q171 347 133 370T73 434T51 529Q51 584 73 624T132 687T217 709Q266 709 299 689T348 639L355 704H426V353H355L348 417V417Q333 386 300 367T219 347ZM239 409Q270 409 294 423T333 464T348 528Q348 585
317 616T239 647Q195 647 164 616T132 529Q132 472 163 441T239 409Z" />
<glyph unicode="&#xab;" horiz-adv-x="471" d="M325 120L230 295L325 470H421L324 295L421 120H325ZM138 120L43 295L138 470H235L137 295L235 120H138Z" />
<glyph unicode="&#xac;" horiz-adv-x="559" d="M469 215V355H-9V434H569V215H469Z" />
<glyph unicode="&#xae;" horiz-adv-x="506" d="M254 302Q194 302 148 328T76 401T50 507Q50 567 76 613T148 685T254 712Q313 712 358 686T430 613T456 507Q456 448 430 402T359 329T254 302ZM291 401L231 499H287L352 401H291ZM254 342Q303 342 338 363T393 421T413
507Q413 555 394 592T339 650T254 672Q205 672 169 651T112 592T92 507Q92 459 112 422T168 363T254 342ZM172 401V616H270Q304 616 323 598T343 549Q343 519 324 501T270 483H223V401H172ZM223 523H264Q276 523 284 528T292 547Q292 560 284 565T264 570H223V523Z"
/>
<glyph unicode="&#xaf;" horiz-adv-x="387" d="M15 587V660H372V587H15Z" />
<glyph unicode="&#xb0;" horiz-adv-x="349" d="M174 437Q137 437 107 454T57 502T38 574Q38 617 57 647T107 695T175 712Q212 712 242 695T291 648T310 574Q310 533 292 502T242 454T174 437ZM174 507Q197 507 217 524T238 575Q238 609 218 626T175 643Q152 643
132 626T112 575Q112 541 131 524T174 507Z" />
<glyph unicode="&#xb1;" horiz-adv-x="559" d="M38 0V76H520V0H38ZM236 139V495H323V139H236ZM38 275V359H520V275H38Z" />
<glyph unicode="&#xb2;" horiz-adv-x="340" d="M36 352V409L150 498Q178 520 196 544T215 599Q215 625 201 638T166 652Q142 652 129 638T111 597H33Q36 645 71 678T172 711Q212 711 240 696T283 657T298 603Q298 563 273 533T198 469L121 414H301V352H36Z" />
<glyph unicode="&#xb3;" horiz-adv-x="338" d="M166 347Q100 347 65 375T24 457H103Q106 438 114 427T135 411T164 406Q191 406 207 419T223 455Q223 481 205 494T160 507H116V551H158Q185 551 202 564T219 602Q219 625 204 638T162 652Q137 652 122 640T102 608H28Q31
636 47 659T94 697T169 711Q226 711 264 682T302 608Q302 577 285 558T237 530V528Q267 518 286 498T306 445Q306 404 269 376T166 347Z" />
<glyph unicode="&#xb4;" horiz-adv-x="220" d="M10 547L0 616L207 743V743L220 661L10 547Z" />
<glyph unicode="&#xb5;" horiz-adv-x="597" d="M68 -220V496H168V220Q168 148 198 111T289 73Q329 73 360 92T410 149T428 239V496H528V0H439L432 86V86Q408 41 364 15T261 -12Q235 -12 211 -6T168 14V-220H68Z" />
<glyph unicode="&#xb6;" horiz-adv-x="608" d="M284 -100V291H271Q190 291 138 318T60 391T35 495Q35 552 60 598T138 672T271 700H535V-100H448V622H370V-100H284Z" />
<glyph unicode="&#xb7;" horiz-adv-x="215" d="M108 273Q79 273 61 291T42 337Q42 365 60 383T108 401Q137 401 155 383T173 337Q173 310 155 292T108 273Z" />
<glyph unicode="&#xb8;" horiz-adv-x="240" d="M0 -260V-200H99Q131 -200 146 -189T162 -156Q162 -135 147 -125T99 -115H46V7H111V-58Q147 -57 176 -68T223 -101T240 -158Q240 -190 224 -213T179 -248T116 -260H0Z" />
<glyph unicode="&#xb9;" horiz-adv-x="214" d="M94 352V628L27 611V660L124 704H173V352H94Z" />
<glyph unicode="&#xba;" horiz-adv-x="467" d="M233 348Q178 348 137 371T72 435T49 530Q49 585 72 626T138 689T234 712Q288 712 330 690T395 626T418 530Q418 476 395 435T329 371T233 348ZM233 411Q262 411 285 425T323 465T337 530Q337 570 323 596T286 636T233
650Q204 650 181 637T144 597T130 530Q130 492 143 466T180 425T233 411Z" />
<glyph unicode="&#xbb;" horiz-adv-x="471" d="M147 120H50L148 295L50 470H147L241 295L147 120ZM333 120H237L334 295L237 470H333L428 295L333 120Z" />
<glyph unicode="&#xbc;" horiz-adv-x="747" d="M94 352V628L27 611V660L124 704H173V352H94ZM96 0L499 700H599L195 0H96ZM609 0V64H440V120L601 348H686V123H729V64H686V0H609ZM520 123H615V264V264L520 123Z" />
<glyph unicode="&#xbd;" horiz-adv-x="785" d="M94 352V628L27 611V660L124 704H173V352H94ZM96 0L499 700H599L195 0H96ZM482 0V57L596 146Q624 168 642 192T661 247Q661 273 647 286T612 300Q588 300 575 286T557 245H479Q482 293 517 326T618 359Q658 359 686
344T729 305T744 251Q744 211 719 181T644 117L567 62H747V0H482Z" />
<glyph unicode="&#xbe;" horiz-adv-x="847" d="M166 347Q100 347 65 375T24 457H103Q106 438 114 427T135 411T164 406Q191 406 207 419T223 455Q223 481 205 494T160 507H116V551H158Q185 551 202 564T219 602Q219 625 204 638T162 652Q137 652 122 640T102 608H28Q31
636 47 659T94 697T169 711Q226 711 264 682T302 608Q302 577 285 558T237 530V528Q267 518 286 498T306 445Q306 404 269 376T166 347ZM196 0L599 700H699L295 0H196ZM709 0V64H540V120L701 348H786V123H829V64H786V0H709ZM620 123H715V264V264L620 123Z" />
<glyph unicode="&#xbf;" horiz-adv-x="528" d="M375 301L379 144H343Q302 144 266 139T201 119T157 77T140 5Q140 -32 156 -60T202 -103T269 -118Q309 -118 338 -103T383 -62T399 1H494Q495 -59 467 -104T388 -175T269 -201Q203 -201 152 -177T73 -106T44 5Q44
78 74 123T160 190T285 212L287 301H375ZM332 516Q360 516 378 498T397 452Q397 425 379 407T332 388Q303 388 285 406T266 452Q266 479 284 497T332 516Z" />
<glyph unicode="&#xc0;" horiz-adv-x="678" d="M28 0L285 700H394L651 0H544L339 580V580L133 0H28ZM144 173L172 253H501L529 173H144ZM440 743L230 858L243 939V939L450 813L440 743Z" />
<glyph unicode="&#xc1;" horiz-adv-x="678" d="M28 0L285 700H394L651 0H544L339 580V580L133 0H28ZM144 173L172 253H501L529 173H144ZM240 743L230 813L437 939V939L450 858L240 743Z" />
<glyph unicode="&#xc2;" horiz-adv-x="678" d="M28 0L285 700H394L651 0H544L339 580V580L133 0H28ZM144 173L172 253H501L529 173H144ZM200 752V827L340 908L481 827V752L340 836L200 752Z" />
<glyph unicode="&#xc3;" horiz-adv-x="678" d="M28 0L285 700H394L651 0H544L339 580V580L133 0H28ZM144 173L172 253H501L529 173H144ZM404 754Q377 754 358 766T323 789T286 801Q270 801 259 790T244 756H188Q196 811 223 838T291 866Q318 866 336 855T371 831T409
819Q426 819 437 830T452 864H508Q501 809 473 782T404 754Z" />
<glyph unicode="&#xc4;" horiz-adv-x="678" d="M28 0L285 700H394L651 0H544L339 580V580L133 0H28ZM144 173L172 253H501L529 173H144ZM257 773Q234 773 219 788T203 827Q203 849 218 865T257 881Q279 881 295 865T312 827Q312 804 296 789T257 773ZM425 773Q402
773 386 788T370 827Q370 849 386 865T425 881Q447 881 462 865T478 827Q478 804 463 789T425 773Z" />
<glyph unicode="&#xc5;" horiz-adv-x="678" d="M28 0L285 700H394L651 0H544L339 580V580L133 0H28ZM144 173L172 253H501L529 173H144ZM340 757Q296 757 264 785T232 864Q232 913 264 941T340 970Q385 970 416 942T448 864Q448 814 417 786T340 757ZM340 806Q363
806 379 822T395 864Q395 891 379 906T340 921Q318 921 302 906T285 864Q285 838 301 822T340 806Z" />
<glyph unicode="&#xc6;" horiz-adv-x="922" d="M28 0L419 700H866V620H583V393H836V315H583V80H866V0H483V620V620L137 0H28ZM166 151L208 230H530V151H166Z" />
<glyph unicode="&#xc7;" horiz-adv-x="724" d="M380 -12Q277 -12 203 33T88 160T47 350Q47 457 87 539T202 666T380 712Q503 712 579 653T677 487H567Q552 549 506 586T380 623Q309 623 257 590T177 496T149 350Q149 265 177 204T257 110T380 77Q459 77 505 112T567
209H677Q656 105 580 47T380 -12ZM288 -262V-202H387Q419 -202 434 -191T450 -158Q450 -137 435 -127T387 -117H334V5H399V-60Q435 -59 464 -70T511 -103T528 -160Q528 -192 512 -215T467 -250T404 -262H288Z" />
<glyph unicode="&#xc8;" horiz-adv-x="571" d="M73 0V700H515V618H173V394H485V314H173V82H515V0H73ZM394 743L184 858L197 939V939L404 813L394 743Z" />
<glyph unicode="&#xc9;" horiz-adv-x="571" d="M73 0V700H515V618H173V394H485V314H173V82H515V0H73ZM194 743L184 813L391 939V939L404 858L194 743Z" />
<glyph unicode="&#xca;" horiz-adv-x="571" d="M73 0V700H515V618H173V394H485V314H173V82H515V0H73ZM154 752V827L294 908L435 827V752L294 836L154 752Z" />
<glyph unicode="&#xcb;" horiz-adv-x="571" d="M73 0V700H515V618H173V394H485V314H173V82H515V0H73ZM211 773Q188 773 173 788T157 827Q157 849 172 865T211 881Q233 881 249 865T266 827Q266 804 250 789T211 773ZM379 773Q356 773 340 788T324 827Q324 849
340 865T379 881Q401 881 416 865T432 827Q432 804 417 789T379 773Z" />
<glyph unicode="&#xcc;" horiz-adv-x="246" d="M73 0V700H173V0H73ZM223 743L13 858L26 939V939L233 813L223 743Z" />
<glyph unicode="&#xcd;" horiz-adv-x="246" d="M73 0V700H173V0H73ZM23 743L13 813L220 939V939L233 858L23 743Z" />
<glyph unicode="&#xce;" horiz-adv-x="246" d="M73 0V700H173V0H73ZM239 752V827L379 908L520 827V752L379 836L239 752Z" />
<glyph unicode="&#xcf;" horiz-adv-x="246" d="M73 0V700H173V0H73ZM296 773Q273 773 258 788T242 827Q242 849 257 865T296 881Q318 881 334 865T351 827Q351 804 335 789T296 773ZM464 773Q441 773 425 788T409 827Q409 849 425 865T464 881Q486 881 501 865T517
827Q517 804 502 789T464 773Z" />
<glyph unicode="&#xd0;" horiz-adv-x="712" d="M7 305V393H383V305H7ZM91 0V700H306Q429 700 508 657T626 536T665 349Q665 241 627 163T509 43T306 0H91ZM191 84H302Q399 84 456 116T537 207T562 349Q562 432 538 492T456 584T302 616H191V84Z" />
<glyph unicode="&#xd1;" horiz-adv-x="703" d="M73 0V700H173L530 163V163V700H630V0H530L173 536V536V0H73ZM416 754Q389 754 370 766T335 789T298 801Q282 801 271 790T256 756H200Q208 811 235 838T303 866Q330 866 348 855T383 831T421 819Q438 819 449 830T464
864H520Q513 809 485 782T416 754Z" />
<glyph unicode="&#xd2;" horiz-adv-x="777" d="M388 -12Q287 -12 211 33T91 160T47 350Q47 457 90 538T210 666T388 712Q491 712 568 666T687 539T730 350Q730 242 688 161T568 34T388 -12ZM389 77Q461 77 515 110T598 204T628 350Q628 435 599 496T515 589T389
622Q317 622 263 590T179 496T149 350Q149 265 179 204T263 110T389 77ZM489 743L279 858L292 939V939L499 813L489 743Z" />
<glyph unicode="&#xd3;" horiz-adv-x="777" d="M388 -12Q287 -12 211 33T91 160T47 350Q47 457 90 538T210 666T388 712Q491 712 568 666T687 539T730 350Q730 242 688 161T568 34T388 -12ZM389 77Q461 77 515 110T598 204T628 350Q628 435 599 496T515 589T389
622Q317 622 263 590T179 496T149 350Q149 265 179 204T263 110T389 77ZM289 743L279 813L486 939V939L499 858L289 743Z" />
<glyph unicode="&#xd4;" horiz-adv-x="777" d="M388 -12Q287 -12 211 33T91 160T47 350Q47 457 90 538T210 666T388 712Q491 712 568 666T687 539T730 350Q730 242 688 161T568 34T388 -12ZM389 77Q461 77 515 110T598 204T628 350Q628 435 599 496T515 589T389
622Q317 622 263 590T179 496T149 350Q149 265 179 204T263 110T389 77ZM249 752V827L389 908L530 827V752L389 836L249 752Z" />
<glyph unicode="&#xd5;" horiz-adv-x="777" d="M388 -12Q287 -12 211 33T91 160T47 350Q47 457 90 538T210 666T388 712Q491 712 568 666T687 539T730 350Q730 242 688 161T568 34T388 -12ZM389 77Q461 77 515 110T598 204T628 350Q628 435 599 496T515 589T389
622Q317 622 263 590T179 496T149 350Q149 265 179 204T263 110T389 77ZM453 754Q426 754 407 766T372 789T335 801Q319 801 308 790T293 756H237Q245 811 272 838T340 866Q367 866 385 855T420 831T458 819Q475 819 486 830T501 864H557Q550 809 522 782T453 754Z"
/>
<glyph unicode="&#xd6;" horiz-adv-x="777" d="M388 -12Q287 -12 211 33T91 160T47 350Q47 457 90 538T210 666T388 712Q491 712 568 666T687 539T730 350Q730 242 688 161T568 34T388 -12ZM389 77Q461 77 515 110T598 204T628 350Q628 435 599 496T515 589T389
622Q317 622 263 590T179 496T149 350Q149 265 179 204T263 110T389 77ZM306 773Q283 773 268 788T252 827Q252 849 267 865T306 881Q328 881 344 865T361 827Q361 804 345 789T306 773ZM474 773Q451 773 435 788T419 827Q419 849 435 865T474 881Q496 881 511
865T527 827Q527 804 512 789T474 773Z" />
<glyph unicode="&#xd7;" horiz-adv-x="559" d="M148 100L89 159L220 291L93 417L153 476L280 350L410 481L469 422L339 291L465 164L405 105L279 231L148 100Z" />
<glyph unicode="&#xd8;" horiz-adv-x="777" d="M32 0L644 700H745L133 0H32ZM388 -12Q287 -12 210 33T90 160T47 350Q47 457 90 538T210 666T388 712Q491 712 568 666T687 539T730 350Q730 242 688 161T568 34T388 -12ZM389 77Q461 77 515 110T598 204T628 350Q628
435 599 496T515 589T389 622Q317 622 263 590T179 496T149 350Q149 265 179 204T263 110T389 77Z" />
<glyph unicode="&#xd9;" horiz-adv-x="665" d="M331 -12Q257 -12 197 17T102 107T66 262V700H166V261Q166 198 187 158T245 98T333 78Q384 78 421 97T478 157T499 261V700H599V262Q599 168 563 108T466 18T331 -12ZM431 743L221 858L234 939V939L441 813L431 743Z" />
<glyph unicode="&#xda;" horiz-adv-x="665" d="M331 -12Q257 -12 197 17T102 107T66 262V700H166V261Q166 198 187 158T245 98T333 78Q384 78 421 97T478 157T499 261V700H599V262Q599 168 563 108T466 18T331 -12ZM231 743L221 813L428 939V939L441 858L231 743Z" />
<glyph unicode="&#xdb;" horiz-adv-x="665" d="M331 -12Q257 -12 197 17T102 107T66 262V700H166V261Q166 198 187 158T245 98T333 78Q384 78 421 97T478 157T499 261V700H599V262Q599 168 563 108T466 18T331 -12ZM191 752V827L331 908L472 827V752L331 836L191 752Z" />
<glyph unicode="&#xdc;" horiz-adv-x="665" d="M331 -12Q257 -12 197 17T102 107T66 262V700H166V261Q166 198 187 158T245 98T333 78Q384 78 421 97T478 157T499 261V700H599V262Q599 168 563 108T466 18T331 -12ZM248 773Q225 773 210 788T194 827Q194 849 209
865T248 881Q270 881 286 865T303 827Q303 804 287 789T248 773ZM416 773Q393 773 377 788T361 827Q361 849 377 865T416 881Q438 881 453 865T469 827Q469 804 454 789T416 773Z" />
<glyph unicode="&#xdd;" horiz-adv-x="597" d="M249 0V260L18 700H131L312 332H287L467 700H579L349 260V0H249ZM199 743L189 813L396 939V939L409 858L199 743Z" />
<glyph unicode="&#xde;" horiz-adv-x="591" d="M73 0V700H173V558H313Q396 558 450 531T530 457T556 350Q556 293 531 246T452 171T313 143H173V0H73ZM173 225H309Q386 225 420 259T454 350Q454 410 420 442T309 475H173V225Z" />
<glyph unicode="&#xdf;" horiz-adv-x="676" d="M448 -10Q361 -10 306 38T242 171H338Q343 124 371 96T447 67Q491 67 515 88T540 147Q540 182 519 203T442 243Q363 270 328 299T293 373Q293 403 307 422T341 455T382 482T416 513T430 555Q430 598 397 623T305
648Q235 648 202 610T169 506V0H70V515Q70 578 97 627T178 704T308 732Q380 732 429 710T503 649T529 565Q529 531 516 508T483 470T442 443T408 418T394 387Q394 374 403 362T435 339T502 312Q576 287 608 249T640 154Q640 105 617 68T551 11T448 -10Z" />
<glyph unicode="&#xe0;" horiz-adv-x="557" d="M235 -12Q173 -12 132 9T71 65T51 142Q51 192 77 227T151 282T266 301H397Q397 345 384 374T346 417T281 432Q236 432 204 411T164 347H64Q70 400 100 437T179 495T281 516Q352 516 400 491T472 421T497 312V0H410L402
85V85Q391 65 376 47T341 16T294 -4T235 -12ZM254 69Q286 69 312 82T356 117T384 168T395 227V230H276Q233 230 207 220T168 191T156 149Q156 124 167 107T201 79T254 69ZM375 547L165 661L178 743V743L385 616L375 547Z" />
<glyph unicode="&#xe1;" horiz-adv-x="557" d="M235 -12Q173 -12 132 9T71 65T51 142Q51 192 77 227T151 282T266 301H397Q397 345 384 374T346 417T281 432Q236 432 204 411T164 347H64Q70 400 100 437T179 495T281 516Q352 516 400 491T472 421T497 312V0H410L402
85V85Q391 65 376 47T341 16T294 -4T235 -12ZM254 69Q286 69 312 82T356 117T384 168T395 227V230H276Q233 230 207 220T168 191T156 149Q156 124 167 107T201 79T254 69ZM175 547L165 616L372 743V743L385 661L175 547Z" />
<glyph unicode="&#xe2;" horiz-adv-x="557" d="M235 -12Q173 -12 132 9T71 65T51 142Q51 192 77 227T151 282T266 301H397Q397 345 384 374T346 417T281 432Q236 432 204 411T164 347H64Q70 400 100 437T179 495T281 516Q352 516 400 491T472 421T497 312V0H410L402
85V85Q391 65 376 47T341 16T294 -4T235 -12ZM254 69Q286 69 312 82T356 117T384 168T395 227V230H276Q233 230 207 220T168 191T156 149Q156 124 167 107T201 79T254 69ZM135 550V625L275 706L416 625V550L275 633L135 550Z" />
<glyph unicode="&#xe3;" horiz-adv-x="557" d="M235 -12Q173 -12 132 9T71 65T51 142Q51 192 77 227T151 282T266 301H397Q397 345 384 374T346 417T281 432Q236 432 204 411T164 347H64Q70 400 100 437T179 495T281 516Q352 516 400 491T472 421T497 312V0H410L402
85V85Q391 65 376 47T341 16T294 -4T235 -12ZM254 69Q286 69 312 82T356 117T384 168T395 227V230H276Q233 230 207 220T168 191T156 149Q156 124 167 107T201 79T254 69ZM331 570Q304 570 285 581T250 604T213 616Q197 616 186 605T171 571H115Q123 626 150 653T218
681Q245 681 263 670T298 646T336 634Q353 634 364 645T379 679H435Q428 625 400 598T331 570Z" />
<glyph unicode="&#xe4;" horiz-adv-x="557" d="M235 -12Q173 -12 132 9T71 65T51 142Q51 192 77 227T151 282T266 301H397Q397 345 384 374T346 417T281 432Q236 432 204 411T164 347H64Q70 400 100 437T179 495T281 516Q352 516 400 491T472 421T497 312V0H410L402
85V85Q391 65 376 47T341 16T294 -4T235 -12ZM254 69Q286 69 312 82T356 117T384 168T395 227V230H276Q233 230 207 220T168 191T156 149Q156 124 167 107T201 79T254 69ZM192 570Q169 570 154 585T138 624Q138 646 153 662T192 678Q214 678 230 662T247 624Q247
601 231 586T192 570ZM360 570Q337 570 321 585T305 624Q305 646 321 662T360 678Q382 678 397 662T413 624Q413 601 398 586T360 570Z" />
<glyph unicode="&#xe5;" horiz-adv-x="557" d="M235 -12Q173 -12 132 9T71 65T51 142Q51 192 77 227T151 282T266 301H397Q397 345 384 374T346 417T281 432Q236 432 204 411T164 347H64Q70 400 100 437T179 495T281 516Q352 516 400 491T472 421T497 312V0H410L402
85V85Q391 65 376 47T341 16T294 -4T235 -12ZM254 69Q286 69 312 82T356 117T384 168T395 227V230H276Q233 230 207 220T168 191T156 149Q156 124 167 107T201 79T254 69ZM275 570Q231 570 199 598T167 676Q167 725 199 753T275 782Q320 782 351 754T383 676Q383
626 352 598T275 570ZM275 618Q298 618 314 634T330 676Q330 703 314 718T275 733Q253 733 237 718T220 676Q220 650 236 634T275 618Z" />
<glyph unicode="&#xe6;" horiz-adv-x="924" d="M239 -12Q177 -12 135 9T72 65T51 143Q51 192 76 227T149 281T263 300H397Q397 345 385 374T347 417T284 432Q242 432 211 411T171 347H71Q76 401 106 438T183 496T284 516Q347 516 392 494T462 432Q495 472 542
494T645 516Q718 516 770 483T851 396T880 276Q880 266 880 255T878 230H499Q501 177 521 142T574 89T643 71Q694 71 725 95T772 160H870Q858 111 827 72T750 11T644 -12Q578 -12 525 18T440 100Q420 68 391 43T325 3T239 -12ZM251 69Q291 69 321 89T371 144T395
218V230H274Q232 230 206 220T168 192T156 150Q156 126 167 108T200 80T251 69ZM500 300H781Q777 363 739 398T645 433Q610 433 579 418T526 373T500 300Z" />
<glyph unicode="&#xe7;" horiz-adv-x="583" d="M301 -12Q228 -12 171 21T82 114T49 251Q49 330 81 389T171 482T301 516Q393 516 455 468T534 338H430Q420 382 385 406T300 430Q260 430 226 410T172 350T151 252Q151 209 163 176T195 119T243 85T300 73Q333 73
359 83T404 115T430 165H534Q517 85 455 37T301 -12ZM218 -262V-202H317Q349 -202 364 -191T380 -158Q380 -137 365 -127T317 -117H264V5H329V-60Q365 -59 394 -70T441 -103T458 -160Q458 -192 442 -215T397 -250T334 -262H218Z" />
<glyph unicode="&#xe8;" horiz-adv-x="579" d="M296 -12Q224 -12 168 21T81 113T49 250Q49 330 80 389T168 482T298 516Q372 516 425 483T507 396T536 275Q536 265 536 254T534 228H122V299H436Q433 362 394 397T297 433Q256 433 222 415T168 361T147 271V243Q147
187 167 149T222 91T296 71Q344 71 375 92T421 149H521Q508 103 477 67T401 9T296 -12ZM394 547L184 661L197 743V743L404 616L394 547Z" />
<glyph unicode="&#xe9;" horiz-adv-x="579" d="M296 -12Q224 -12 168 21T81 113T49 250Q49 330 80 389T168 482T298 516Q372 516 425 483T507 396T536 275Q536 265 536 254T534 228H122V299H436Q433 362 394 397T297 433Q256 433 222 415T168 361T147 271V243Q147
187 167 149T222 91T296 71Q344 71 375 92T421 149H521Q508 103 477 67T401 9T296 -12ZM194 547L184 616L391 743V743L404 661L194 547Z" />
<glyph unicode="&#xea;" horiz-adv-x="579" d="M296 -12Q224 -12 168 21T81 113T49 250Q49 330 80 389T168 482T298 516Q372 516 425 483T507 396T536 275Q536 265 536 254T534 228H122V299H436Q433 362 394 397T297 433Q256 433 222 415T168 361T147 271V243Q147
187 167 149T222 91T296 71Q344 71 375 92T421 149H521Q508 103 477 67T401 9T296 -12ZM154 550V625L294 706L435 625V550L294 633L154 550Z" />
<glyph unicode="&#xeb;" horiz-adv-x="579" d="M296 -12Q224 -12 168 21T81 113T49 250Q49 330 80 389T168 482T298 516Q372 516 425 483T507 396T536 275Q536 265 536 254T534 228H122V299H436Q433 362 394 397T297 433Q256 433 222 415T168 361T147 271V243Q147
187 167 149T222 91T296 71Q344 71 375 92T421 149H521Q508 103 477 67T401 9T296 -12ZM211 570Q188 570 173 585T157 624Q157 646 172 662T211 678Q233 678 249 662T266 624Q266 601 250 586T211 570ZM379 570Q356 570 340 585T324 624Q324 646 340 662T379 678Q401
678 416 662T432 624Q432 601 417 586T379 570Z" />
<glyph unicode="&#xec;" horiz-adv-x="237" d="M68 0V504H168V0H68ZM218 547L8 661L21 743V743L228 616L218 547Z" />
<glyph unicode="&#xed;" horiz-adv-x="237" d="M68 0V504H168V0H68ZM18 547L8 616L215 743V743L228 661L18 547Z" />
<glyph unicode="&#xee;" horiz-adv-x="237" d="M68 0V504H168V0H68ZM234 550V625L374 706L515 625V550L374 633L234 550Z" />
<glyph unicode="&#xef;" horiz-adv-x="237" d="M68 0V504H168V0H68ZM291 570Q268 570 253 585T237 624Q237 646 252 662T291 678Q313 678 329 662T346 624Q346 601 330 586T291 570ZM459 570Q436 570 420 585T404 624Q404 646 420 662T459 678Q481 678 496 662T512
624Q512 601 497 586T459 570Z" />
<glyph unicode="&#xf0;" horiz-adv-x="625" d="M310 -12Q234 -12 175 22T83 116T49 250Q49 326 82 384T174 476T305 509Q349 509 389 496T460 451Q447 484 429 516T388 580T336 642T273 700H370Q426 654 465 602T528 494T564 384T576 275Q576 189 541 124T446
24T310 -12ZM312 73Q356 73 393 94T452 155T474 250Q474 305 452 344T394 404T313 425Q269 425 232 404T173 344T151 250Q151 195 173 155T232 94T312 73ZM247 546V610L536 708V644L247 546Z" />
<glyph unicode="&#xf1;" horiz-adv-x="587" d="M68 0V504H158L164 418V418Q188 463 232 489T333 516Q393 516 436 492T503 420T527 298V0H427V288Q427 358 396 394T306 430Q267 430 236 412T187 357T168 269V0H68ZM368 570Q341 570 322 581T287 604T250 616Q234
616 223 605T208 571H152Q160 626 187 653T255 681Q282 681 300 670T335 646T373 634Q390 634 401 645T416 679H472Q465 625 437 598T368 570Z" />
<glyph unicode="&#xf2;" horiz-adv-x="599" d="M298 -12Q227 -12 171 21T82 113T49 251Q49 331 82 390T172 483T300 516Q372 516 428 483T516 391T549 252Q549 172 517 113T427 21T298 -12ZM298 74Q339 74 372 94T426 153T447 252Q447 311 427 350T374 410T300
430Q260 430 226 410T172 351T151 252Q151 193 171 154T225 94T298 74ZM400 547L190 661L203 743V743L410 616L400 547Z" />
<glyph unicode="&#xf3;" horiz-adv-x="599" d="M298 -12Q227 -12 171 21T82 113T49 251Q49 331 82 390T172 483T300 516Q372 516 428 483T516 391T549 252Q549 172 517 113T427 21T298 -12ZM298 74Q339 74 372 94T426 153T447 252Q447 311 427 350T374 410T300
430Q260 430 226 410T172 351T151 252Q151 193 171 154T225 94T298 74ZM200 547L190 616L397 743V743L410 661L200 547Z" />
<glyph unicode="&#xf4;" horiz-adv-x="599" d="M298 -12Q227 -12 171 21T82 113T49 251Q49 331 82 390T172 483T300 516Q372 516 428 483T516 391T549 252Q549 172 517 113T427 21T298 -12ZM298 74Q339 74 372 94T426 153T447 252Q447 311 427 350T374 410T300
430Q260 430 226 410T172 351T151 252Q151 193 171 154T225 94T298 74ZM160 550V625L300 706L441 625V550L300 633L160 550Z" />
<glyph unicode="&#xf5;" horiz-adv-x="599" d="M298 -12Q227 -12 171 21T82 113T49 251Q49 331 82 390T172 483T300 516Q372 516 428 483T516 391T549 252Q549 172 517 113T427 21T298 -12ZM298 74Q339 74 372 94T426 153T447 252Q447 311 427 350T374 410T300
430Q260 430 226 410T172 351T151 252Q151 193 171 154T225 94T298 74ZM356 570Q329 570 310 581T275 604T238 616Q222 616 211 605T196 571H140Q148 626 175 653T243 681Q270 681 288 670T323 646T361 634Q378 634 389 645T404 679H460Q453 625 425 598T356 570Z"
/>
<glyph unicode="&#xf6;" horiz-adv-x="599" d="M298 -12Q227 -12 171 21T82 113T49 251Q49 331 82 390T172 483T300 516Q372 516 428 483T516 391T549 252Q549 172 517 113T427 21T298 -12ZM298 74Q339 74 372 94T426 153T447 252Q447 311 427 350T374 410T300
430Q260 430 226 410T172 351T151 252Q151 193 171 154T225 94T298 74ZM217 570Q194 570 179 585T163 624Q163 646 178 662T217 678Q239 678 255 662T272 624Q272 601 256 586T217 570ZM385 570Q362 570 346 585T330 624Q330 646 346 662T385 678Q407 678 422 662T438
624Q438 601 423 586T385 570Z" />
<glyph unicode="&#xf7;" horiz-adv-x="559" d="M75 248V332H484V248H75ZM280 71Q252 71 234 89T215 134Q215 161 233 179T280 198Q309 198 327 180T345 134Q345 108 327 90T280 71ZM280 384Q252 384 234 402T215 448Q215 475 233 493T280 512Q309 512 327 494T345
448Q345 421 327 403T280 384Z" />
<glyph unicode="&#xf8;" horiz-adv-x="596" d="M37 0L472 504H559L124 0H37ZM297 -12Q226 -12 170 21T81 113T48 251Q48 331 80 390T170 483T298 516Q370 516 426 483T515 391T548 252Q548 172 515 113T426 21T297 -12ZM297 74Q337 74 371 94T425 153T446 252Q446
311 426 350T373 410T298 430Q259 430 225 410T171 351T150 252Q150 193 170 154T224 94T297 74Z" />
<glyph unicode="&#xf9;" horiz-adv-x="587" d="M253 -12Q194 -12 151 12T84 84T60 205V504H160V216Q160 145 191 109T280 73Q319 73 350 92T400 147T418 235V504H518V0H429L422 86V86Q399 40 355 14T253 -12ZM387 547L177 661L190 743V743L397 616L387 547Z" />
<glyph unicode="&#xfa;" horiz-adv-x="587" d="M253 -12Q194 -12 151 12T84 84T60 205V504H160V216Q160 145 191 109T280 73Q319 73 350 92T400 147T418 235V504H518V0H429L422 86V86Q399 40 355 14T253 -12ZM187 547L177 616L384 743V743L397 661L187 547Z" />
<glyph unicode="&#xfb;" horiz-adv-x="587" d="M253 -12Q194 -12 151 12T84 84T60 205V504H160V216Q160 145 191 109T280 73Q319 73 350 92T400 147T418 235V504H518V0H429L422 86V86Q399 40 355 14T253 -12ZM147 550V625L287 706L428 625V550L287 633L147 550Z" />
<glyph unicode="&#xfc;" horiz-adv-x="587" d="M253 -12Q194 -12 151 12T84 84T60 205V504H160V216Q160 145 191 109T280 73Q319 73 350 92T400 147T418 235V504H518V0H429L422 86V86Q399 40 355 14T253 -12ZM204 570Q181 570 166 585T150 624Q150 646 165 662T204
678Q226 678 242 662T259 624Q259 601 243 586T204 570ZM372 570Q349 570 333 585T317 624Q317 646 333 662T372 678Q394 678 409 662T425 624Q425 601 410 586T372 570Z" />
<glyph unicode="&#xfd;" horiz-adv-x="571" d="M126 -220L249 56H220L21 504H129L287 138V138L446 504H551L231 -220H126ZM186 547L176 616L383 743V743L396 661L186 547Z" />
<glyph unicode="&#xfe;" horiz-adv-x="635" d="M68 -220V720H168V426Q184 449 208 469T265 503T344 516Q416 516 470 482T555 387T586 251Q586 175 556 116T470 22T343 -12Q284 -12 239 11T168 77V-220H68ZM327 75Q373 75 408 97T464 159T485 252Q485 305 465
344T409 406T327 429Q280 429 245 407T189 345T169 252Q169 199 189 159T244 97T327 75Z" />
<glyph unicode="&#xff;" horiz-adv-x="571" d="M126 -220L249 56H220L21 504H129L287 138V138L446 504H551L231 -220H126ZM203 570Q180 570 165 585T149 624Q149 646 164 662T203 678Q225 678 241 662T258 624Q258 601 242 586T203 570ZM371 570Q348 570 332 585T316
624Q316 646 332 662T371 678Q393 678 408 662T424 624Q424 601 409 586T371 570Z" />
<glyph unicode="&#x2013;" horiz-adv-x="677" d="M74 253V337H604V253H74Z" />
<glyph unicode="&#x2014;" horiz-adv-x="887" d="M74 253V337H813V253H74Z" />
<glyph unicode="&#x2018;" horiz-adv-x="224" d="M30 462L124 700H194L139 462H30Z" />
<glyph unicode="&#x2019;" horiz-adv-x="224" d="M194 700L100 462H30L85 700H194Z" />
<glyph unicode="&#x201a;" horiz-adv-x="209" d="M10 -118L66 117H175L80 -118H10Z" />
<glyph unicode="&#x201c;" horiz-adv-x="394" d="M199 462L294 700H364L308 462H199ZM30 462L124 700H194L139 462H30Z" />
<glyph unicode="&#x201d;" horiz-adv-x="394" d="M195 700L100 462H30L86 700H195ZM364 700L270 462H200L255 700H364Z" />
<glyph unicode="&#x201e;" horiz-adv-x="381" d="M10 -118L66 117H175L80 -118H10ZM183 -118L238 117H347L253 -118H183Z" />
<glyph unicode="&#x2022;" horiz-adv-x="369" d="M183 207Q149 207 121 224T76 269T59 333Q59 369 75 397T120 443T183 460Q219 460 247 443T293 398T310 333Q310 298 293 270T248 224T183 207Z" />
<glyph unicode="&#x2039;" horiz-adv-x="287" d="M139 120L44 295L139 470H236L138 295L236 120H139Z" />
<glyph unicode="&#x203a;" horiz-adv-x="287" d="M148 120H51L149 295L51 470H148L243 295L148 120Z" />
</font>
</defs>
</svg>
