<svg width="18" height="18" viewBox="0 0 18 18" fill="none" xmlns="http://www.w3.org/2000/svg">
<rect width="18" height="18" fill="#E1E1E1"/>
<g id="Mobile" clip-path="url(#clip0_0_1)">
<rect width="375" height="6012" transform="translate(-20 -5704)" fill="#11131F"/>
<g id="Ellipse 7268" opacity="0.6" filter="url(#filter0_f_0_1)">
<ellipse cx="210" cy="210" rx="210" ry="210" transform="matrix(0.694658 -0.71934 0.704616 0.709589 -74 431)" fill="#93ABAE"/>
</g>
<g id="footer">
<g id="logo">
<g id="fontisto:yacht">
<mask id="mask0_0_1" style="mask-type:alpha" maskUnits="userSpaceOnUse" x="0" y="0" width="18" height="18">
<path id="Vector" d="M0 14.412L4.0605 18H15.972L17.6775 15.6038L0.0015 14.412H0ZM10.4887 0V14.3048L15.9705 14.682L10.4887 0ZM9.74175 2.4105L1.82175 13.6807L9.74175 14.2155V2.4105Z" fill="black"/>
</mask>
<g mask="url(#mask0_0_1)">
<path id="Rectangle 1" d="M0 0H18V18H0V0Z" fill="url(#paint0_linear_0_1)"/>
</g>
</g>
</g>
</g>
</g>
<defs>
<filter id="filter0_f_0_1" x="-187.939" y="16.7622" width="815.574" height="824.38" filterUnits="userSpaceOnUse" color-interpolation-filters="sRGB">
<feFlood flood-opacity="0" result="BackgroundImageFix"/>
<feBlend mode="normal" in="SourceGraphic" in2="BackgroundImageFix" result="shape"/>
<feGaussianBlur stdDeviation="100" result="effect1_foregroundBlur_0_1"/>
</filter>
<linearGradient id="paint0_linear_0_1" x1="7.66484" y1="2.72868e-06" x2="16.8581" y2="0.347733" gradientUnits="userSpaceOnUse">
<stop stop-color="#BEC7C2"/>
<stop offset="1" stop-color="#A1B5BA"/>
</linearGradient>
<clipPath id="clip0_0_1">
<rect width="375" height="6012" fill="white" transform="translate(-20 -5704)"/>
</clipPath>
</defs>
</svg>
