<svg width="32" height="32" viewBox="0 0 32 32" fill="none" xmlns="http://www.w3.org/2000/svg">
<path d="M19.991 11.1147C19.8138 11.1147 19.6405 11.1673 19.4932 11.2657C19.3458 11.3642 19.231 11.5041 19.1632 11.6678C19.0954 11.8316 19.0776 12.0117 19.1122 12.1855C19.1468 12.3593 19.2321 12.519 19.3574 12.6443C19.4827 12.7696 19.6424 12.8549 19.8162 12.8895C19.99 12.9241 20.1701 12.9063 20.3339 12.8385C20.4976 12.7707 20.6375 12.6559 20.736 12.5085C20.8344 12.3612 20.887 12.1879 20.887 12.0107C20.887 11.7731 20.7926 11.5452 20.6245 11.3771C20.4565 11.2091 20.2286 11.1147 19.991 11.1147ZM23.4256 12.9217C23.4111 12.3021 23.2951 11.6892 23.0822 11.1072C22.8923 10.6093 22.5968 10.1584 22.216 9.78565C21.8463 9.40293 21.3944 9.1093 20.8944 8.92698C20.314 8.70758 19.7004 8.5889 19.08 8.57605C18.2886 8.53125 18.0347 8.53125 16.0038 8.53125C13.9728 8.53125 13.719 8.53125 12.9275 8.57605C12.3071 8.5889 11.6935 8.70758 11.1131 8.92698C10.6141 9.11115 10.1626 9.40452 9.79151 9.78565C9.40879 10.1554 9.11516 10.6073 8.93284 11.1072C8.71344 11.6877 8.59476 12.3013 8.58191 12.9217C8.53711 13.7131 8.53711 13.967 8.53711 15.9979C8.53711 18.0289 8.53711 18.2827 8.58191 19.0742C8.59476 19.6946 8.71344 20.3082 8.93284 20.8886C9.11516 21.3885 9.40879 21.8405 9.79151 22.2102C10.1626 22.5913 10.6141 22.8847 11.1131 23.0689C11.6935 23.2883 12.3071 23.4069 12.9275 23.4198C13.719 23.4646 13.9728 23.4646 16.0038 23.4646C18.0347 23.4646 18.2886 23.4646 19.08 23.4198C19.7004 23.4069 20.314 23.2883 20.8944 23.0689C21.3944 22.8865 21.8463 22.5929 22.216 22.2102C22.5985 21.8388 22.8943 21.3875 23.0822 20.8886C23.2951 20.3066 23.4111 19.6937 23.4256 19.0742C23.4256 18.2827 23.4704 18.0289 23.4704 15.9979C23.4704 13.967 23.4704 13.7131 23.4256 12.9217ZM22.0816 18.9846C22.0762 19.4585 21.9904 19.9281 21.8278 20.3734C21.7086 20.6983 21.5171 20.9919 21.2678 21.2321C21.0256 21.4788 20.7326 21.6699 20.4091 21.7921C19.9639 21.9546 19.4943 22.0405 19.0203 22.0459C18.2736 22.0833 17.9974 22.0907 16.0336 22.0907C14.0699 22.0907 13.7936 22.0907 13.047 22.0459C12.5548 22.0551 12.0648 21.9794 11.5984 21.8219C11.2892 21.6935 11.0096 21.5029 10.7771 21.2619C10.5293 21.022 10.3402 20.7282 10.2246 20.4033C10.0423 19.9516 9.94117 19.4714 9.92591 18.9846C9.92591 18.2379 9.88111 17.9617 9.88111 15.9979C9.88111 14.0342 9.88111 13.7579 9.92591 13.0113C9.92926 12.5267 10.0177 12.0465 10.1872 11.5926C10.3187 11.2774 10.5205 10.9965 10.7771 10.7713C11.004 10.5145 11.2843 10.3106 11.5984 10.1739C12.0536 10.0097 12.5333 9.92384 13.0171 9.92005C13.7638 9.92005 14.04 9.87525 16.0038 9.87525C17.9675 9.87525 18.2438 9.87525 18.9904 9.92005C19.4644 9.92549 19.934 10.0113 20.3792 10.1739C20.7186 10.2998 21.0231 10.5046 21.2678 10.7713C21.5125 11.0006 21.7037 11.281 21.8278 11.5926C21.9937 12.0473 22.0796 12.5272 22.0816 13.0113C22.119 13.7579 22.1264 14.0342 22.1264 15.9979C22.1264 17.9617 22.119 18.2379 22.0816 18.9846ZM16.0038 12.1675C15.2465 12.169 14.5067 12.3949 13.8778 12.8167C13.2488 13.2385 12.759 13.8372 12.4703 14.5373C12.1815 15.2373 12.1067 16.0072 12.2554 16.7498C12.404 17.4923 12.7694 18.1741 13.3054 18.709C13.8414 19.244 14.5239 19.6081 15.2667 19.7553C16.0095 19.9024 16.7793 19.8262 17.4788 19.536C18.1783 19.2459 18.7761 18.7549 19.1966 18.1252C19.6172 17.4955 19.8416 16.7552 19.8416 15.9979C19.8426 15.494 19.744 14.9949 19.5514 14.5292C19.3588 14.0635 19.076 13.6405 18.7193 13.2846C18.3626 12.9286 17.9391 12.6466 17.4731 12.4549C17.007 12.2632 16.5077 12.1655 16.0038 12.1675ZM16.0038 18.4843C15.512 18.4843 15.0313 18.3385 14.6224 18.0653C14.2135 17.7921 13.8948 17.4038 13.7066 16.9494C13.5185 16.4951 13.4692 15.9952 13.5652 15.5128C13.6611 15.0305 13.8979 14.5875 14.2456 14.2398C14.5934 13.892 15.0364 13.6552 15.5187 13.5593C16.001 13.4634 16.501 13.5126 16.9553 13.7008C17.4096 13.889 17.7979 14.2077 18.0711 14.6165C18.3444 15.0254 18.4902 15.5062 18.4902 15.9979C18.4902 16.3244 18.4259 16.6478 18.3009 16.9494C18.176 17.2511 17.9928 17.5252 17.7619 17.7561C17.531 17.987 17.2569 18.1701 16.9553 18.2951C16.6536 18.42 16.3303 18.4843 16.0038 18.4843Z" fill="#F6F5EF"/>
<rect x="0.5" y="0.5" width="31" height="31" rx="5.5" stroke="#F6F5EF" stroke-opacity="0.5"/>
</svg>
