<svg width="1280" height="1773" viewBox="0 0 1280 1773" fill="none" xmlns="http://www.w3.org/2000/svg">
<path opacity="0.0526316" d="M357.685 259.258C305.626 279.881 209.186 358.801 239.893 509.5C278.277 697.873 462.952 802.311 533.361 977.159C585.328 1106.21 634.715 1436.19 471.211 1590.25" stroke="#F6F5EF" stroke-width="1.45842"/>
<path opacity="0.105263" d="M460 248.341C405.421 264.125 299.305 333.688 311.475 485.664C326.688 675.635 498.471 795.518 547.363 974.949C583.449 1107.38 592.252 1438.57 409.852 1576.57" stroke="#F6F5EF" stroke-width="1.45842"/>
<path opacity="0.157895" d="M561.768 244.805C505.559 255.575 391.516 315.007 385.016 466.572C376.893 656.029 533.051 790.026 559.71 972.044C579.387 1106.39 547.603 1435.1 349.322 1555.51" stroke="#F6F5EF" stroke-width="1.45842"/>
<path opacity="0.210526" d="M1289.4 281.891C696.863 35.0035 484.062 302.787 458.984 452.303C427.637 639.199 567.398 785.862 571.751 968.502C574.964 1103.3 502.884 1426 289.811 1527.5" stroke="#F6F5EF" stroke-width="1.45842"/>
<path opacity="0.263158" d="M1249.41 300.114C810.483 112.587 576.503 296.944 533.128 442.746C478.909 624.997 600.536 782.693 582.5 963.918C569.187 1097.68 457.638 1410.75 232.365 1492.22" stroke="#F6F5EF" stroke-width="1.45842"/>
<path opacity="0.315789" d="M1240.72 309.98C964.938 188.228 668.18 297.474 606.981 437.964C530.483 613.576 632.642 780.574 592.41 958.402C562.716 1089.65 412.916 1389.67 177.909 1450.23" stroke="#F6F5EF" stroke-width="1.45842"/>
<path opacity="0.368421" d="M1237.76 326.071C1023.54 237.421 758.317 304.236 679.963 437.877C582.021 604.928 663.591 779.398 601.603 951.879C555.851 1079.18 369.437 1362.87 127.27 1401.86" stroke="#F6F5EF" stroke-width="1.45842"/>
<path opacity="0.421053" d="M1262.83 359.698C1070.2 259.533 846.155 317.035 751.501 442.364C633.185 599.026 693.271 779.056 610.202 944.303C548.892 1066.27 327.899 1330.52 81.2212 1347.51" stroke="#F6F5EF" stroke-width="1.45842"/>
<path opacity="0.473684" d="M1280.3 389.596C1067.53 327.837 930.945 335.601 821.028 451.245C683.631 595.801 721.572 779.415 618.331 935.618C542.132 1050.91 288.98 1292.83 40.4969 1287.63" stroke="#F6F5EF" stroke-width="1.45842"/>
<path opacity="0.526316" d="M1198.51 406.786C1146.67 382.332 1011.99 359.598 888.008 464.292C733.035 595.159 748.412 780.343 626.129 925.789C535.874 1033.14 253.335 1250.08 5.76852 1222.76" stroke="#F6F5EF" stroke-width="1.45842"/>
<path opacity="0.578947" d="M1269.16 452.017C1220.37 423.18 1088.62 388.655 951.941 481.254C781.087 597.002 773.729 781.727 633.739 914.827C530.416 1013.06 221.577 1202.66 -22.3626 1153.52" stroke="#F6F5EF" stroke-width="1.45842"/>
<path opacity="0.631579" d="M1332.78 501.153C1287.59 468.25 1160.23 422.316 1012.34 501.806C827.473 601.168 797.458 783.407 641.294 902.701C526.033 990.749 194.279 1150.92 -43.3594 1080.51" stroke="#F6F5EF" stroke-width="1.45842"/>
<path opacity="0.684211" d="M1388.93 553.526C1347.82 516.92 1226.24 460.086 1068.76 525.597C871.911 607.485 819.566 785.234 648.938 889.416C523.002 966.31 171.965 1095.3 -56.7657 1004.4" stroke="#F6F5EF" stroke-width="1.45842"/>
<path opacity="0.736842" d="M1437.2 608.435C1400.63 568.531 1286.16 501.428 1120.82 552.243C914.14 615.762 840.036 787.064 656.813 874.991C521.581 939.888 155.108 1036.29 -62.2081 925.915" stroke="#F6F5EF" stroke-width="1.45842"/>
<path opacity="0.789474" d="M1477.28 665.141C1445.65 622.384 1339.55 545.762 1168.16 581.327C953.912 625.784 858.859 788.744 665.047 859.452C522 911.639 144.105 974.406 -59.4136 845.787" stroke="#F6F5EF" stroke-width="1.45842"/>
<path opacity="0.842105" d="M1508.97 722.876C1482.63 677.75 1386.07 592.481 1210.5 612.413C991.033 637.328 876.071 790.12 673.793 842.831C524.497 881.735 139.32 910.196 -48.1692 764.798" stroke="#F6F5EF" stroke-width="1.45842"/>
<path opacity="0.894737" d="M1532.14 781.083C1511.38 733.789 1425.41 640.233 1247.58 644.36C1025.31 649.518 891.694 791.373 683.166 825.748C529.257 851.12 141.018 844.971 -28.3866 683.399" stroke="#F6F5EF" stroke-width="1.45842"/>
<path opacity="0.947368" d="M1546.67 838.842C1531.72 790.22 1457.29 690.023 1279.18 678.205C1056.56 663.432 905.774 791.753 693.307 807.1C536.491 818.427 149.493 777.634 0.0505698 602.722" stroke="#F6F5EF" stroke-width="1.45842"/>
<path d="M1552.82 895.337C1543.84 845.885 1481.75 740.076 1305.3 712.465C1084.73 677.951 918.411 791.465 704.306 787.666C546.281 784.861 164.713 709.909 36.8503 523.459" stroke="#F6F5EF" stroke-width="1.45842"/>
</svg>
