<svg xmlns="http://www.w3.org/2000/svg" aria-hidden="true" style="position:absolute;width:0;height:0;overflow:hidden">
  <defs>
    <symbol id="icon-facebook" viewBox="0 0 32 32">
      <path fill="#f6f5ef" d="M18.425 10.801h1.462V8.328a20.221 20.221 0 0 0-2.131-.109c-2.116 0-3.562 1.291-3.562 3.656v2.038h-2.388v2.769h2.388v7.093h2.862v-7.093h2.38l.358-2.769h-2.738v-1.765c0-.817.218-1.346 1.369-1.346z" style="fill:var(--color1, #f6f5ef)"/>
      <path fill="none" d="M6 .5h20A5.5 5.5 0 0 1 31.5 6v20a5.5 5.5 0 0 1-5.5 5.5H6A5.5 5.5 0 0 1 .5 26V6A5.5 5.5 0 0 1 6 .5z"/>
    </symbol>
    <symbol id="icon-instagram" viewBox="0 0 32 32">
      <path fill="#f6f5ef" d="M19.991 11.115a.9.9 0 0 0-.828.553.892.892 0 0 0 .194.977.892.892 0 0 0 .977.194.895.895 0 0 0-.343-1.724zm3.435 1.807a5.711 5.711 0 0 0-.343-1.815 3.69 3.69 0 0 0-.866-1.322 3.518 3.518 0 0 0-1.322-.859 5.462 5.462 0 0 0-1.814-.351c-.791-.045-1.045-.045-3.076-.045s-2.285 0-3.076.045a5.462 5.462 0 0 0-1.814.351c-.499.184-.95.478-1.322.859-.383.37-.676.822-.859 1.322a5.468 5.468 0 0 0-.351 1.815c-.045.791-.045 1.045-.045 3.076s0 2.285.045 3.076c.013.62.132 1.234.351 1.814.182.5.476.952.859 1.322.371.381.823.674 1.322.859.58.219 1.194.338 1.814.351.791.045 1.045.045 3.076.045s2.285 0 3.076-.045a5.437 5.437 0 0 0 1.814-.351c.5-.182.952-.476 1.322-.859.383-.371.678-.823.866-1.322a5.65 5.65 0 0 0 .343-1.814c0-.791.045-1.045.045-3.076s0-2.285-.045-3.076zm-1.344 6.063a4.167 4.167 0 0 1-.254 1.389 2.286 2.286 0 0 1-.56.859 2.373 2.373 0 0 1-.859.56 4.193 4.193 0 0 1-1.389.254c-.747.037-1.023.045-2.987.045s-2.24 0-2.987-.045a4.3 4.3 0 0 1-1.449-.224 2.433 2.433 0 0 1-.821-.56 2.245 2.245 0 0 1-.553-.859 4.164 4.164 0 0 1-.299-1.419c0-.747-.045-1.023-.045-2.987s0-2.24.045-2.987a4.14 4.14 0 0 1 .261-1.419 2.24 2.24 0 0 1 .59-.821c.227-.257.507-.461.821-.597a4.29 4.29 0 0 1 1.419-.254c.747 0 1.023-.045 2.987-.045s2.24 0 2.987.045c.474.005.944.091 1.389.254.339.126.644.331.889.597.245.229.436.51.56.821.166.455.252.935.254 1.419.037.747.045 1.023.045 2.987s-.007 2.24-.045 2.987zm-6.078-6.817a3.833 3.833 0 0 0-3.749 4.582 3.834 3.834 0 0 0 3.011 3.005 3.833 3.833 0 0 0 3.93-1.63 3.836 3.836 0 0 0-.477-4.841 3.831 3.831 0 0 0-2.715-1.117zm0 6.316a2.484 2.484 0 0 1-2.438-2.972 2.49 2.49 0 0 1 1.953-1.954 2.482 2.482 0 0 1 2.553 1.058 2.489 2.489 0 0 1-.309 3.139 2.484 2.484 0 0 1-1.758.728z" style="fill:var(--color1, #f6f5ef)"/>
      <path fill="none" d="M6 .5h20A5.5 5.5 0 0 1 31.5 6v20a5.5 5.5 0 0 1-5.5 5.5H6A5.5 5.5 0 0 1 .5 26V6A5.5 5.5 0 0 1 6 .5z"/>
    </symbol>
    <symbol id="icon-youtube" viewBox="0 0 32 32">
      <path fill="#f6f5ef" d="M20.532 10.5c-.748-.044-2.288-.088-4.62-.088h-.308c-2.244 0-3.74.044-4.488.132-1.012.088-1.716.352-2.112.704-.352.308-.616.88-.704 1.628-.044.484-.088 1.496-.088 3.036v.22c0 1.452.044 2.464.132 2.948.132.704.352 1.232.792 1.54.44.352 1.188.572 2.244.66.748.044 2.288.088 4.62.088h.308c2.244 0 3.74-.044 4.488-.132 1.012-.088 1.716-.352 2.112-.704.352-.308.616-.88.704-1.628.044-.484.088-1.496.088-3.036v-.22c0-1.452-.044-2.464-.132-2.948-.132-.704-.352-1.232-.792-1.54-.44-.352-1.188-.572-2.244-.66zm-1.716 5.412-4.84 2.904v-5.808l4.84 2.904z" style=""/>
      <path fill="none"  d="M6 .5h20A5.5 5.5 0 0 1 31.5 6v20a5.5 5.5 0 0 1-5.5 5.5H6A5.5 5.5 0 0 1 .5 26V6A5.5 5.5 0 0 1 6 .5z" style=""/>
    </symbol>
  </defs>
</svg>