<svg width="32" height="32" viewBox="0 0 32 32" fill="none" xmlns="http://www.w3.org/2000/svg">
<path fill-rule="evenodd" clip-rule="evenodd" d="M20.5319 10.5001C19.7839 10.4561 18.2439 10.4121 15.9119 10.4121H15.6039C13.3599 10.4121 11.8639 10.4561 11.1159 10.5441C10.1039 10.6321 9.39991 10.8961 9.00391 11.2481C8.65191 11.5561 8.38792 12.1281 8.29992 12.8761C8.25592 13.3601 8.21191 14.3721 8.21191 15.9121V16.1321C8.21191 17.5841 8.25591 18.5961 8.34391 19.0801C8.47591 19.7841 8.69593 20.3121 9.13593 20.6201C9.57593 20.9721 10.3239 21.1921 11.3799 21.2801C12.1279 21.3241 13.6679 21.3681 15.9999 21.3681H16.3079C18.5519 21.3681 20.0479 21.3241 20.7959 21.2361C21.8079 21.1481 22.5119 20.8841 22.9079 20.5321C23.2599 20.2241 23.5239 19.6521 23.6119 18.9041C23.6559 18.4201 23.6999 17.4081 23.6999 15.8681V15.6481C23.6999 14.1961 23.6559 13.1841 23.5679 12.7001C23.4359 11.9961 23.2159 11.4681 22.7759 11.1601C22.3359 10.8081 21.5879 10.5881 20.5319 10.5001ZM18.8159 15.9121L13.9759 18.8161V13.0081L18.8159 15.9121Z" fill="#F6F5EF"/>
<rect x="0.5" y="0.5" width="31" height="31" rx="5.5" stroke="#F6F5EF" stroke-opacity="0.5"/>
</svg>
